<?xml version="1.0" encoding="UTF-8"?>
<svg viewBox="0 0 90 135" xmlns="http://www.w3.org/2000/svg">
 <g transform="translate(-1157.1 -6.8979)">
  <g transform="translate(1136.2 -3.0357)">
   <path d="m34.897 9.9336h61.92a14.04 14.04 0 0 1 14.04 14.04v106.92a14.04 14.04 0 0 1 -14.04 14.04h-61.92a14.04 14.04 0 0 1 -14.04 -14.04v-106.92a14.04 14.04 0 0 1 14.04 -14.04"/>
   <path d="m38.857 14.934h54a13 13 0 0 1 13 13v99a13 13 0 0 1 -13 13h-54a13 13 0 0 1 -13 -13v-99a13 13 0 0 1 13 -13" fill="#f2f2f2"/>
  </g>
  <path d="m1170.2 39.362c4.5071-1.0016 4.992-3.6414 5.332-8.4961-0.7831 1.297-2.207 2.2541-4.5312 2.2461-3.8203-0.01317-6.3792-2.2349-5.4688-7.0312 0.918-4.8357 7.793-6.7107 10.918-11.719 3.125 5.008 10 6.883 10.918 11.719 0.9105 4.7964-1.543 7.0177-5.4688 7.0312-2.3242 0.00801-3.748-0.94911-4.5312-2.2461 0.34 4.8547 0.8249 7.4945 5.332 8.4961h-12.5z"/>
  <path d="m1189.6 93.567c9.0143-2.0031 9.984-7.2828 10.664-16.992-1.5664 2.5939-4.4141 4.5082-9.0624 4.4922-7.6407-0.02633-12.759-4.4697-10.938-14.062 1.836-9.6715 15.586-13.421 21.836-23.438 6.25 10.016 20 13.766 21.836 23.438 1.821 9.5928-3.086 14.035-10.938 14.062-4.6484 0.01603-7.496-1.8982-9.0624-4.4922 0.68 9.7094 1.6497 14.989 10.664 16.992h-25z"/>
  <path d="m1212.5858,85.58218c.2666.85337.5866,1.68003.96,2.48s.72,1.60003 1.04,2.4l-.08.16c-4.8533.16003-9.6.85336-14.24,2.08-4.64,1.17336-9.0133,3.22669-13.12,6.16l-.16-.08c.3733-.74664.6667-1.49331.88-2.24 .2667-.74664.5333-1.51997.8-2.32 3.84-2.02664 7.7333-3.75997 11.68-5.2 3.9467-1.4933 8-2.66663 12.16-3.52l.08.08m-9.92-22.88c1.6,3.68005 3.2,7.25338 4.8,10.72s3.12,7.04004 4.56,10.72h-.08c-3.84.7467-7.6,1.7867-11.28,3.12-3.6267,1.33337-7.2,2.88003-10.72,4.64l-.32.08c2.24-4.95997 4.4-9.86663 6.48-14.72 2.08-4.90662 4.24-9.73328 6.48-14.48l.08-.08m-24.48,58.96c1.3867-3.36 2.6933-6.77333 3.92-10.24 1.28-3.46666 2.64-6.90665 4.08-10.32 1.92-1.43998 4.0267-2.71998 6.32-3.84 2.3467-1.17331 4.7733-2.15997 7.28-2.96s5.04-1.4133 7.6-1.84c2.6133-.42664 5.1733-.63997 7.68-.64l-.08-.16c2.0266,5.22669 3.8933,10.42668 5.6,15.6 1.76,5.17334 3.5466,10.34667 5.36,15.52l-.24.16c-3.4134.15999-6.88.23999-10.4.24s-7.0933.02666-10.72.08l-.08-.08c-.48-1.70667-.9333-3.41334-1.36-5.12-.4267-1.76-.88-3.49333-1.36-5.2l-2.16,9.12 .08-.16h-21.52v-.16" fill="#333"/>
  <path d="m1202.4 33.813h-9.5666l-1.7111 5.1333h-5.3473l9.0806-25.531h5.775l8.8278 25.531h-5.3667l-1.6917-5.1333m-1.4388-4.3944-3.3056-9.975-3.3444 9.975h6.65"/>
 </g>
</svg>
