<?xml version="1.0" encoding="UTF-8"?>
<svg enable-background="new 0 0 40.833 52.177" viewBox="0 0 40.833 52.177" xmlns="http://www.w3.org/2000/svg">
 <defs>
  <radialGradient id="a" cx="-55.606" cy="861.79" r="23.359" gradientTransform="matrix(.9593 -.2824 .2824 .9593 -166.4 -818.12)" gradientUnits="userSpaceOnUse">
   <stop stop-color="#fcee23" offset="0"/>
   <stop stop-color="#076e3a" offset="1"/>
  </radialGradient>
  <radialGradient id="h" cx="-72.289" cy="853.23" r="4.2546" gradientTransform="matrix(.9943 .1068 -.1068 .9943 194.76 -834.59)" gradientUnits="userSpaceOnUse">
   <stop stop-color="#fcee23" offset="0"/>
   <stop stop-color="#076e3a" offset="1"/>
  </radialGradient>
  <radialGradient id="g" cx="6.3379" cy="19.245" r="4.2559" gradientTransform="matrix(.262 .9651 -.9651 .262 30.945 -2.4831)" gradientUnits="userSpaceOnUse">
   <stop stop-color="#fff200" offset="0"/>
   <stop stop-color="#006e3a" offset="1"/>
  </radialGradient>
  <radialGradient id="f" cx="20.49" cy="317.12" r="2.1321" gradientTransform="matrix(1 0 0 -1 .0376 338.27)" gradientUnits="userSpaceOnUse">
   <stop stop-color="#57585a" offset="0"/>
   <stop stop-color="#010101" offset="1"/>
  </radialGradient>
  <radialGradient id="e" cx="24.628" cy="315.64" r="5.6052" gradientTransform="matrix(1 0 0 -1 .0376 338.27)" gradientUnits="userSpaceOnUse">
   <stop stop-color="#57585a" offset="0"/>
   <stop stop-color="#010101" offset="1"/>
  </radialGradient>
  <radialGradient id="d" cx="-64.715" cy="879.3" r="16.817" gradientTransform="matrix(.9593 -.2824 .2824 .9593 -166.4 -818.12)" gradientUnits="userSpaceOnUse">
   <stop stop-color="#20341c" offset="0"/>
   <stop stop-color="#20351d" offset=".2259"/>
   <stop stop-color="#223a20" offset=".4116"/>
   <stop stop-color="#224326" offset=".5829"/>
   <stop stop-color="#22502c" offset=".7457"/>
   <stop stop-color="#1a6134" offset=".9009"/>
   <stop stop-color="#076e3a" offset="1"/>
  </radialGradient>
  <radialGradient id="c" cx="-61.239" cy="867.32" r="6.6923" gradientTransform="matrix(.9593 -.2824 .2824 .9593 -166.4 -818.12)" gradientUnits="userSpaceOnUse">
   <stop stop-color="#ede9c8" offset=".0112"/>
   <stop stop-color="#fff" offset=".5562"/>
   <stop stop-color="#cccecf" offset="1"/>
  </radialGradient>
  <radialGradient id="b" cx="-65.371" cy="881.39" r="10.69" gradientTransform="matrix(.9593 -.2824 .2824 .9593 -166.4 -818.12)" gradientUnits="userSpaceOnUse">
   <stop stop-color="#ede9c8" offset=".0112"/>
   <stop stop-color="#fff" offset=".5562"/>
   <stop stop-color="#cccecf" offset="1"/>
  </radialGradient>
 </defs>
 <path d="m39.162 49.039a18.429 2.184 0 1 0 -36.858 0 18.429 2.184 0 1 0 36.858 0" fill="#bdbec0" opacity=".75"/>
 <path d="m38.531,33.266c1.108-7.923-3.154-15.359-10.011-18.631l-.119-.479c.527-.604 2.064-3.513 2.262-3.491 2.062.221 3.913-1.271 4.136-3.333s-1.271-3.914-3.334-4.135-3.913,1.271-4.133,3.332c-.132,1.233.349,2.393 1.197,3.17 .125.116-1.225,3.212-1.395,3.904l-.719.188c-1.003-.33-2.049-.575-3.132-.726-.8-.112-1.594-.169-2.381-.174l-.487-.327c-.609-.123-1.166-.106-1.691-.007l.047.095-.155.373c-7.851.962-14.387,7.087-15.533,15.29-1.367,9.789 5.459,18.832 15.249,20.199s18.832-5.458 20.199-15.248z" fill="#8cc641" stroke="#046132" stroke-width=".4831"/>
 <path d="m38.146 30.614a17.338 17.338 0 1 0 -34.676 0 17.338 17.338 0 1 0 34.676 0" fill="url(#a)" stroke="#2b9145" stroke-width=".4831"/>
 <path d="m33.982 6.947a3.159 3.159 0 1 0 -6.318 0 3.159 3.159 0 1 0 6.318 0" fill="url(#h)" opacity=".41"/>
 <path d="m16.616,8.746c.173-1.15-.188-2.366-1.083-3.242-1.48-1.455-3.857-1.433-5.311.048s-1.43,3.857.049,5.31 3.857,1.431 5.31-.049c.255-.26 1.487.463 1.741.592 .547.279 1.532.526 1.265,1.359 .237-.243.498-.471.741-.707-.36.349-.659.674-.949,1.021 .044-.006.106-.021.147-.039-.029.03-.057.039-.063.08 .728-.214 1.542-.098 2.279-.208 .036-.277-.176-.62-.283-.868-.215-.498-.471-1.093-.85-1.491-.304-.319-.807-.507-1.194-.72-.187-.103-1.836-.84-1.799-1.086z" fill="#8cc63f" stroke="#006031" stroke-width=".4831"/>
 <path d="m16.052 8.136a3.159 3.159 0 1 0 -6.318 0 3.159 3.159 0 1 0 6.318 0" fill="url(#g)" opacity=".5"/>
 <path d="m17.869,20.085c-.356,1.017-1.374,2.031-2.368,1.225-.589-.477-.486-1.792-.216-2.383 .621-1.359 2.675-1.146 2.717.415 .005.227-.043.485-.133.743z" fill="url(#f)"/>
 <path d="m23.286,19.233v.042c.008,1.683 1.644,2.95 3.092,3.417 .752.243 1.758-.322 2.157-.937 .975-1.502-.63-3.451-1.824-4.247-.638-.425-1.59-.937-2.358-.562-.841.41-1.064,1.436-1.067,2.287z" fill="url(#e)"/>
 <path d="m22.078,43.475c-1.008-.124-1.914.171-2.903.525-2.217.795-4.478-.212-5.392-2.405-.819-1.964-.744-4.776-.27-6.813 .608-2.611 1.978-5.01 3.679-7.062 1.417-1.709 3.634-2.298 5.819-1.811 2.116.472 3.53,2.354 4.575,4.116 .48.81.748,1.711 1.101,2.579 1.064,2.615 2.029,5.873 1.106,8.689-.649,1.981-2.278,3.129-4.362,2.798-.966-.153-1.88-.263-2.826-.514-.179-.048-.355-.081-.527-.102z" fill="url(#d)" stroke="#20341c" stroke-width=".4203"/>
 <path d="m24.382,29.104c-2.157-.089-4.262-.247-6.413.066-.557.081-1.188.261-1.754.174 .316-1.109 1.581-2.284 2.533-2.884 1.17-.737 2.949-.845 4.263-.552 .894.199 1.726.661 2.396,1.281 .658.61 1.006,1.414 1.583,2.08-.89-.124-1.707-.127-2.608-.165z" fill="url(#c)" stroke="#f79320" stroke-linecap="round" stroke-width=".4587"/>
 <path d="m22.078,43.475c-1.008-.124-1.914.171-2.903.525-1.279.458-2.719.326-3.845-.454-.767-.531-1.033-1.211-1.437-2-.282-.55-.818-1.321-.484-1.982 .679.528 1.165,1.464 1.925,1.839 .64.315 1.72.369 2.42.469 1.342.191 2.663.25 4.017.233 1.842-.023 4.084-.127 5.815-.811 1.241-.491 1.359-2.153 2.349-2.928 .529.763.122,2.124-.141,2.927-.649,1.981-2.278,3.129-4.362,2.798-.966-.153-1.88-.263-2.826-.514-.18-.048-.356-.081-.528-.102z" fill="url(#b)" stroke="#f79320" stroke-linecap="round" stroke-width=".4587"/>
 <path d="m21.521,26.792c.002.628-.013,1.25.063,1.875" fill="none" stroke="#f79320" stroke-linecap="round" stroke-width=".4587"/>
 <path d="m22.078,43.475c-1.008-.124-1.914.171-2.903.525-2.217.795-4.478-.212-5.392-2.405-.819-1.964-.744-4.776-.27-6.813 .608-2.611 1.978-5.01 3.679-7.062 1.417-1.709 3.634-2.298 5.819-1.811 2.116.472 3.53,2.354 4.575,4.116 .48.81.748,1.711 1.101,2.579 1.064,2.615 2.029,5.873 1.106,8.689-.649,1.981-2.278,3.129-4.362,2.798-.966-.153-1.88-.263-2.826-.514-.179-.048-.355-.081-.527-.102z" fill="none" stroke="#20341c" stroke-width=".4203"/>
 <path d="m15.146,41.229c.358.576.638,1.072 1.125,1.563" fill="none" stroke="#f79320" stroke-linecap="round" stroke-width=".4587"/>
 <path d="m27.896,41.104c.045.494-.507,1.235-.813,1.563" fill="none" stroke="#f79320" stroke-linecap="round" stroke-width=".4587"/>
 <path d="m16.458,18.854c-.118.089-.208.198-.273.328 .384.423.568-.612.085-.203" fill="#fff"/>
 <path d="m24.896,17.854c-.526.199-.38,1.054.182.951 .919-.168.151-1.378-.37-.826" fill="#fff"/>
 <path d="m24.958,19.667c-.301.087-.341.476.003.371 .302-.091.222-.363-.066-.371" fill="#fff"/>
 <path d="m13.458,20.792c-.156.746-.132,1.406.514,1.946 .278.233.816.463 1.167.31-.193.783-1.531.068-1.806-.3-.203-.272-.646-2.099.062-1.893" fill="#006e3a"/>
 <path d="m28.208,23.979c1.412-.28 2.411-.925 2.771-2.408 .155-.638.136-1.649-.249-2.226 2.189,1.498-.08,4.774-2.209,4.634" fill="#006e3a"/>
</svg>
