<?xml version="1.0" encoding="UTF-8" standalone="no"?>
<!-- Generator: Adobe Illustrator 19.0.0, SVG Export Plug-In . SVG Version: 6.00 Build 0)  -->

<svg
   xmlns:dc="http://purl.org/dc/elements/1.1/"
   xmlns:cc="http://creativecommons.org/ns#"
   xmlns:rdf="http://www.w3.org/1999/02/22-rdf-syntax-ns#"
   xmlns:svg="http://www.w3.org/2000/svg"
   xmlns="http://www.w3.org/2000/svg"
   xmlns:sodipodi="http://sodipodi.sourceforge.net/DTD/sodipodi-0.dtd"
   xmlns:inkscape="http://www.inkscape.org/namespaces/inkscape"
   version="1.1"
   id="Layer_1"
   x="0px"
   y="0px"
   viewBox="0 0 512 512"
   style="enable-background:new 0 0 512 512;"
   xml:space="preserve"
   sodipodi:docname="bee2.svg"
   inkscape:version="0.92.2 (5c3e80d, 2017-08-06)"><metadata
     id="metadata45"><rdf:RDF><cc:Work
         rdf:about=""><dc:format>image/svg+xml</dc:format><dc:type
           rdf:resource="http://purl.org/dc/dcmitype/StillImage" /><dc:title></dc:title></cc:Work></rdf:RDF></metadata><defs
     id="defs43" /><sodipodi:namedview
     pagecolor="#ffffff"
     bordercolor="#666666"
     borderopacity="1"
     objecttolerance="10"
     gridtolerance="10"
     guidetolerance="10"
     inkscape:pageopacity="0"
     inkscape:pageshadow="2"
     inkscape:window-width="1280"
     inkscape:window-height="945"
     id="namedview41"
     showgrid="false"
     inkscape:zoom="0.32593203"
     inkscape:cx="47.526168"
     inkscape:cy="643.58333"
     inkscape:window-x="-9"
     inkscape:window-y="-9"
     inkscape:window-maximized="1"
     inkscape:current-layer="g8" /><g
     id="g858"
     transform="translate(1.5340642)"><g
       transform="matrix(1.5673305,0,0,1,-145.23661,0)"
       id="g8"><rect
         style="opacity:1;fill:#5fbcd3;fill-opacity:1;stroke:none;stroke-width:0.34060571;stroke-linecap:butt;stroke-miterlimit:4;stroke-dasharray:none;stroke-dashoffset:0;stroke-opacity:1;paint-order:normal"
         id="rect841"
         width="326.3295"
         height="511.65939"
         x="92.858147"
         y="1.4060147"
         ry="29.706141" /><rect
         ry="27.39151"
         y="21.339638"
         x="108.95308"
         height="471.79214"
         width="294.83176"
         id="rect843"
         style="opacity:1;fill:#afdde9;fill-opacity:1;stroke:none;stroke-width:0.31088212;stroke-linecap:butt;stroke-miterlimit:4;stroke-dasharray:none;stroke-dashoffset:0;stroke-opacity:1;paint-order:normal" /><g
         id="g949"
         transform="matrix(0.53285845,0,0,0.83516529,118.60933,42.197685)"><g
           id="g840"><path
             id="path834"
             d="m 195.613,512 c -5.301,0 -10.592,-2.086 -14.538,-6.227 -7.648,-8.027 -7.341,-20.734 0.686,-28.383 21.12,-20.124 21.12,-44.704 21.12,-62.651 0,-11.087 8.988,-20.075 20.075,-20.075 11.087,0 20.075,8.988 20.075,20.075 0,20.874 0,59.728 -33.574,91.72 -3.885,3.703 -8.869,5.541 -13.844,5.541 z"
             style="fill:#414b58"
             inkscape:connector-curvature="0" /><path
             id="path836"
             d="m 382.31,512 c -5.301,0 -10.592,-2.086 -14.538,-6.227 -7.648,-8.027 -7.341,-20.734 0.686,-28.383 21.12,-20.124 21.12,-44.704 21.12,-62.651 0,-11.087 8.988,-20.075 20.075,-20.075 11.087,0 20.076,8.988 20.076,20.075 0,20.874 0,59.728 -33.574,91.72 -3.887,3.703 -8.87,5.541 -13.845,5.541 z"
             style="fill:#414b58"
             inkscape:connector-curvature="0" /><path
             id="path838"
             d="m 97.165,344.265 v 0 c -30.469,0 -59.833,-11.415 -82.301,-31.995 l -6.482,-5.937 c -3.27,-2.995 -3.27,-8.148 0,-11.143 l 6.482,-5.937 c 22.468,-20.58 51.832,-31.995 82.301,-31.995 v 0 z"
             style="fill:#414b58"
             inkscape:connector-curvature="0" /></g><path
           id="path842"
           d="m 97.165,257.257 c -17.054,0 -33.761,3.579 -49.107,10.337 -2.254,10.743 -3.441,21.841 -3.441,33.167 v 0 c 0,11.326 1.187,22.424 3.441,33.167 15.346,6.758 32.053,10.337 49.107,10.337 v 0 z"
           style="opacity:0.1;enable-background:new"
           inkscape:connector-curvature="0" /><path
           id="path844"
           d="m 278.466,172.689 h 61.742 c 47.687,0 86.344,-38.658 86.344,-86.344 v 0 C 426.552,38.658 387.895,0 340.208,0 v 0 c -47.687,0 -86.344,38.658 -86.344,86.344 v 61.742 c -0.001,13.588 11.014,24.603 24.602,24.603 z"
           style="fill:#c9f4ff"
           inkscape:connector-curvature="0" /><path
           id="path846"
           d="m 282.341,22.267 c -17.486,15.801 -28.477,38.654 -28.477,64.077 v 61.742 c 0,13.587 11.015,24.602 24.602,24.602 h 61.742 c 18.536,0 35.692,-5.86 49.76,-15.801 C 293.8,156.554 283.193,63.008 282.341,22.267 Z"
           style="fill:#aeeaf9"
           inkscape:connector-curvature="0" /><path
           id="path848"
           d="m 381.149,457.852 v 0 c -63.495,14.677 -129.502,14.677 -192.997,0 v 0 C 115.023,440.948 63.23,375.819 63.23,300.761 v 0 c 0,-75.057 51.792,-140.187 124.922,-157.091 v 0 c 63.495,-14.677 129.502,-14.677 192.997,0 v 0 c 73.129,16.904 124.922,82.033 124.922,157.091 v 0 c 0,75.058 -51.793,140.187 -124.922,157.091 z"
           style="fill:#fbdd56"
           inkscape:connector-curvature="0" /><path
           id="path850"
           d="m 312.109,133.554 c -38,-2.44 -76.243,0.188 -113.713,7.889 -26.02,104.543 -26.02,214.093 0,318.636 37.471,7.701 75.714,10.329 113.713,7.889 -34.56,-108.674 -34.56,-225.74 0,-334.414 z"
           style="fill:#596675"
           inkscape:connector-curvature="0" /><path
           id="path852"
           d="M 141.449,162.53 C 93.94,191.068 63.23,242.969 63.23,300.761 v 0 c 0,75.057 51.792,140.187 124.922,157.091 v 0 c 63.495,14.677 129.502,14.677 192.997,0 v 0 c 2.259,-0.522 4.497,-1.091 6.714,-1.704 C 179.894,463.353 134.688,271.517 141.449,162.53 Z"
           style="opacity:0.1;enable-background:new"
           inkscape:connector-curvature="0" /><path
           id="path854"
           d="m 229.261,172.689 h -61.742 c -47.687,0 -86.344,-38.658 -86.344,-86.344 v 0 C 81.175,38.658 119.832,0 167.519,0 v 0 c 47.687,0 86.344,38.658 86.344,86.344 v 61.742 c 0,13.588 -11.014,24.603 -24.602,24.603 z"
           style="fill:#c9f4ff"
           inkscape:connector-curvature="0" /><g
           id="g860"><ellipse
             id="ellipse856"
             ry="18.372"
             rx="23.07"
             cy="304.81"
             cx="346.48001"
             style="fill:#ffa6bb" /><ellipse
             id="ellipse858"
             ry="18.372"
             rx="23.07"
             cy="304.81"
             cx="471.53"
             style="fill:#ffa6bb" /></g><g
           id="g872"><path
             id="path862"
             d="m 359.928,293.985 c -4.143,0 -7.5,-3.358 -7.5,-7.5 v -8.147 c 0,-4.142 3.357,-7.5 7.5,-7.5 4.143,0 7.5,3.358 7.5,7.5 v 8.147 c 0,4.142 -3.358,7.5 -7.5,7.5 z"
             style="fill:#414b58"
             inkscape:connector-curvature="0" /><path
             id="path864"
             d="m 458.087,293.985 c -4.143,0 -7.5,-3.358 -7.5,-7.5 v -8.147 c 0,-4.142 3.357,-7.5 7.5,-7.5 4.143,0 7.5,3.358 7.5,7.5 v 8.147 c 0,4.142 -3.358,7.5 -7.5,7.5 z"
             style="fill:#414b58"
             inkscape:connector-curvature="0" /><path
             id="path866"
             d="m 409.007,300.241 c -7.127,0 -13.903,-3.086 -18.594,-8.467 -2.722,-3.122 -2.396,-7.86 0.727,-10.582 3.122,-2.721 7.859,-2.397 10.582,0.727 1.84,2.112 4.495,3.323 7.285,3.323 2.79,0 5.445,-1.211 7.284,-3.322 2.723,-3.124 7.459,-3.449 10.582,-0.728 3.123,2.721 3.449,7.459 0.729,10.582 -4.69,5.38 -11.467,8.467 -18.595,8.467 z"
             style="fill:#414b58"
             inkscape:connector-curvature="0" /><path
             id="path868"
             d="m 297.627,512 c -5.301,0 -10.592,-2.086 -14.538,-6.227 -7.648,-8.027 -7.341,-20.734 0.686,-28.383 21.12,-20.124 21.12,-44.704 21.12,-62.651 0,-11.087 8.988,-20.075 20.075,-20.075 11.087,0 20.076,8.988 20.076,20.075 0,20.874 0,59.728 -33.575,91.72 -3.885,3.703 -8.869,5.541 -13.844,5.541 z"
             style="fill:#414b58"
             inkscape:connector-curvature="0" /><path
             id="path870"
             d="m 110.931,512 c -5.301,0 -10.592,-2.086 -14.538,-6.227 -7.648,-8.027 -7.341,-20.734 0.686,-28.383 21.12,-20.124 21.12,-44.704 21.12,-62.651 0,-11.087 8.988,-20.075 20.075,-20.075 11.087,0 20.075,8.988 20.075,20.075 0,20.874 0,59.728 -33.575,91.72 -3.884,3.703 -8.869,5.541 -13.843,5.541 z"
             style="fill:#414b58"
             inkscape:connector-curvature="0" /></g><path
           id="path874"
           d="M 137.795,5.253 C 104.752,17.368 81.174,49.102 81.174,86.344 v 0 c 0,47.687 38.658,86.344 86.344,86.344 h 54.07 C 135.028,162.9 122.447,44.153 137.795,5.253 Z"
           style="fill:#aeeaf9"
           inkscape:connector-curvature="0" /><g
           id="g876" /><g
           id="g878" /><g
           id="g880" /><g
           id="g882" /><g
           id="g884" /><g
           id="g886" /><g
           id="g888" /><g
           id="g890" /><g
           id="g892" /><g
           id="g894" /><g
           id="g896" /><g
           id="g898" /><g
           id="g900" /><g
           id="g902" /><g
           id="g904" /></g></g></g><g
     id="g10" /><g
     id="g12" /><g
     id="g14" /><g
     id="g16" /><g
     id="g18" /><g
     id="g20" /><g
     id="g22" /><g
     id="g24" /><g
     id="g26" /><g
     id="g28" /><g
     id="g30" /><g
     id="g32" /><g
     id="g34" /><g
     id="g36" /><g
     id="g38" /></svg>