<?xml version='1.0' encoding='utf-8'?>
<svg xmlns="http://www.w3.org/2000/svg" height="100%" stroke-miterlimit="10" style="fill-rule:nonzero;clip-rule:evenodd;stroke-linecap:round;stroke-linejoin:round;" version="1.1" viewBox="0 0 2160 3200" width="100%"> <defs> <linearGradient gradientTransform="matrix(1.17326 0 0 1.10688 -172.632 -182.748)" gradientUnits="userSpaceOnUse" id="LinearGradient" x1="573.116" x2="1535.89" y1="1464.37" y2="1464.37"> <stop offset="0" stop-color="#3d3018"/> <stop offset="1" stop-color="#34261b"/> </linearGradient> <linearGradient gradientTransform="matrix(1.17326 0 0 1.10688 -172.632 -182.748)" gradientUnits="userSpaceOnUse" id="LinearGradient_2" x1="826.465" x2="888.143" y1="2110.66" y2="2110.66"> <stop offset="0" stop-color="#3d3018"/> <stop offset="1" stop-color="#34261b"/> </linearGradient> <linearGradient gradientTransform="matrix(1.17326 0 0 1.10688 -172.632 -182.748)" gradientUnits="userSpaceOnUse" id="LinearGradient_3" x1="878.509" x2="940.187" y1="2074.35" y2="2074.35"> <stop offset="0" stop-color="#3d3018"/> <stop offset="1" stop-color="#34261b"/> </linearGradient> </defs> <clipPath id="ArtboardFrame"> <rect height="3200" width="2160" x="0" y="0"/> </clipPath> <g clip-path="url(#ArtboardFrame)" id="Layer-2"> <path d="M0 0L2160 0L2160 3205.07L0 3205.07L0 0Z" fill="#b9ad97" fill-rule="evenodd" opacity="1" stroke="none"/> <path d="M852.448 1342.92L391.772 1175.81L200.953 772.382L391.772 368.95L852.448 201.843L1313.12 368.95L1503.94 772.382L1313.12 1175.81L852.448 1342.92Z" fill="#dac0a7" fill-rule="evenodd" opacity="1" stroke="none"/> <path d="M1133.73 1612.05L878.128 1250.15L956.714 830.322L1323.45 598.492L1763.51 690.465L2019.1 1052.36L1940.52 1472.19L1573.78 1704.02L1133.73 1612.05Z" fill="#b89e86" fill-rule="evenodd" opacity="1" stroke="none"/> <path d="M736.752 2173.44L470.274 1808.53L552.205 1385.21L934.551 1151.45L1393.34 1244.19L1659.82 1609.1L1577.89 2032.42L1195.54 2266.18L736.752 2173.44Z" fill="#886a4e" fill-rule="evenodd" opacity="1" stroke="none"/> <path d="M392.45 2731.45L145.673 2389.31L221.547 1992.39L575.625 1773.21L1000.49 1860.17L1247.27 2202.31L1171.4 2599.23L817.319 2818.41L392.45 2731.45Z" fill="#6d553d" fill-rule="evenodd" opacity="1" stroke="none"/> <path d="M1247.97 2904.4L1021.28 2603.32L1090.98 2254.03L1416.23 2061.16L1806.51 2137.68L2033.2 2438.76L1963.5 2788.04L1638.25 2980.92L1247.97 2904.4Z" fill="#4d3925" fill-rule="evenodd" opacity="1" stroke="none"/> <path d="M152.193 350.068L149.556 349.038L148.464 346.55L149.556 344.062L152.193 343.032L154.83 344.062L155.922 346.55L154.83 349.038L152.193 350.068Z" fill="#dac0a7" fill-rule="evenodd" opacity="1" stroke="none"/> </g> <g id="Layer-1"> <g opacity="1"> <path d="M1322.32 649.508C1322.32 649.508 787.282 878.475 1003.95 1205.49C1185.56 1479.6 1388.57 1401.99 1503.58 1332.52C1544.7 1307.68 1629.36 1182.62 1629.36 1182.62C1629.36 1182.62 1464.97 1454.57 1441.7 1492.79C1384.66 1586.5 1335.51 1680.45 1266.55 1766.53C1200.49 1849 1114.01 1914.6 1005.95 1925.63C897.887 1936.66 825.337 1826.64 825.337 1826.64C825.337 1826.64 919.091 2000.36 823.012 2056.43C721.384 2115.73 602.752 1995.24 602.752 1995.24C602.752 1995.24 650.331 2044.13 658.66 2110.13C666.988 2176.14 535.249 2227.23 535.249 2227.23C535.249 2227.23 576.748 2146.76 567.88 2060.86C559.013 1974.95 499.78 1883.61 499.78 1883.61C499.78 1883.61 628.577 1996.18 721.632 1932.79C801.526 1878.36 770.316 1736.16 770.316 1736.16C770.316 1736.16 890.623 1804.33 979.724 1774.01C1068.83 1743.68 1156.4 1649.32 1217.75 1577.25C1222.38 1571.82 1277.66 1503.22 1277.66 1503.22C1277.66 1503.22 1115.01 1569.11 881.014 1412.98C647.019 1256.86 690.724 840.769 957.649 700.762C1072.68 640.429 1322.32 649.508 1322.32 649.508Z" fill="url(#LinearGradient)" fill-rule="evenodd" opacity="1" stroke="none"/> <path d="M797.364 2162.88L803.457 2129.19C805.45 2118.17 815.673 2111.19 826.289 2113.6L853.437 2119.78C864.053 2122.19 871.042 2133.09 869.048 2144.11L862.956 2177.8C860.962 2188.82 850.739 2195.81 840.124 2193.39L812.975 2187.22C802.359 2184.8 795.37 2173.91 797.364 2162.88Z" fill="url(#LinearGradient_2)" fill-rule="evenodd" opacity="1" stroke="none"/> <path d="M858.424 2122.69L864.517 2089C866.511 2077.97 876.733 2070.99 887.349 2073.41L914.497 2079.58C925.113 2082 932.103 2092.89 930.109 2103.92L924.016 2137.61C922.022 2148.63 911.799 2155.61 901.184 2153.2L874.035 2147.02C863.419 2144.61 856.43 2133.71 858.424 2122.69Z" fill="url(#LinearGradient_3)" fill-rule="evenodd" opacity="1" stroke="none"/> </g> <g opacity="1"> <path d="M1544.3 2526.92L1558.85 2497.18C1563.6 2487.45 1575.33 2483.22 1585.04 2487.72L1609.88 2499.23C1619.59 2503.73 1623.6 2515.26 1618.84 2524.99L1604.3 2554.73C1599.54 2564.46 1587.81 2568.7 1578.1 2564.2L1553.27 2552.69C1543.56 2548.19 1539.54 2536.65 1544.3 2526.92Z" fill="#c4ab7c" fill-rule="evenodd" opacity="1" stroke="none"/> <path d="M1342.15 2277.7C1342.15 2277.7 1373.31 2408.42 1323.1 2467.4C1283.28 2514.19 1162.55 2548.4 1162.55 2548.4C1162.55 2548.4 1175.88 2540.44 1227.32 2507.13C1278.75 2473.83 1288.23 2453.62 1302.54 2428.14C1316.85 2402.65 1342.15 2277.7 1342.15 2277.7Z" fill="#c4ab7c" fill-rule="evenodd" opacity="1" stroke="none"/> <path d="M647.546 2356.7C647.546 2356.7 560.718 2566.81 656.346 2569.61C751.974 2572.4 1080.51 2497.58 1163.1 2380.58C1245.69 2263.59 933.353 2202.45 974.079 2104.72C1014.81 2007 1569.42 1945.79 1574.82 1947C1593.43 1951.18 1087.83 2038.57 1078.3 2131.5C1068.77 2224.42 1310.78 2318.15 1268.31 2389.13C1142.09 2600.07 559.574 2730.47 542.255 2616.58C524.936 2502.69 647.546 2356.7 647.546 2356.7Z" fill="#c4ab7c" fill-rule="evenodd" opacity="1" stroke="none"/> <path d="M1620.43 2314.99C1671.51 2343.19 1695.66 2317.86 1714.68 2284.79C1724.46 2267.81 1737.76 2229.34 1711.03 2222.66C1628.29 2201.99 1671.54 2322.58 1625.37 2365.37C1594.5 2393.96 1581.72 2331.32 1581.72 2331.32C1581.72 2331.32 1607.9 2524.25 1470.45 2452.26C1364.44 2396.73 1354.12 2227.21 1353.75 2115.01C1353.39 2002.81 1405.11 1866.26 1405.93 1866.34C1412.47 1867.03 1338.85 2311.3 1475.39 2353.46C1603.63 2393.05 1562.51 2253.5 1562.51 2253.5C1562.51 2253.5 1584.17 2303.27 1601.14 2292.91C1632.66 2273.64 1652.81 2091.22 1750.75 2189.28C1877.9 2316.58 1696.73 2364.73 1666.99 2348.48C1646.7 2337.39 1620.43 2314.99 1620.43 2314.99Z" fill="#c4ab7c" fill-rule="evenodd" opacity="1" stroke="none"/> <path d="M951.824 2305.67C951.824 2305.67 867.355 2333.78 882.566 2361.72C897.521 2389.18 965.541 2364.09 965.541 2364.09C965.541 2364.09 886.013 2407.09 849.557 2422.85C836.11 2428.66 821.197 2435 806.592 2438.39C799.022 2440.15 783.882 2443.66 783.882 2443.66C783.882 2443.66 907.809 2392.08 906.588 2382.35C905.367 2372.61 848.912 2401.92 841.055 2364.67C835.811 2339.8 951.824 2305.67 951.824 2305.67Z" fill="#c4ab7c" fill-rule="evenodd" opacity="1" stroke="none"/> </g> <path d="M1327.02 1050.05L1343.49 1006.61L1316.09 964.752L1363.59 971.213L1392.07 935.515L1404.96 982.954L1449.95 1002.75L1410.42 1025.6L1409.75 1073.53L1372.43 1040.22L1327.02 1050.05Z" fill="#392b19" fill-rule="evenodd" opacity="1" stroke="none"/> <path d="M1390.91 938.96C1390.91 938.96 1407.39 868.909 1384.63 795.257C1369.37 745.873 1306.63 702.062 1320.68 649.845" fill="none" fill-rule="evenodd" opacity="1" stroke="#392b19" stroke-linecap="butt" stroke-linejoin="bevel" stroke-width="1.07752"/> </g> </svg>