<?xml version="1.0" encoding="UTF-8" standalone="no"?>
<!-- Generator: Adobe Illustrator 19.0.0, SVG Export Plug-In . SVG Version: 6.00 Build 0)  -->

<svg
   xmlns:dc="http://purl.org/dc/elements/1.1/"
   xmlns:cc="http://creativecommons.org/ns#"
   xmlns:rdf="http://www.w3.org/1999/02/22-rdf-syntax-ns#"
   xmlns:svg="http://www.w3.org/2000/svg"
   xmlns="http://www.w3.org/2000/svg"
   xmlns:sodipodi="http://sodipodi.sourceforge.net/DTD/sodipodi-0.dtd"
   xmlns:inkscape="http://www.inkscape.org/namespaces/inkscape"
   version="1.1"
   id="Layer_1"
   x="0px"
   y="0px"
   viewBox="0 0 512 512"
   style="enable-background:new 0 0 512 512;"
   xml:space="preserve"
   sodipodi:docname="fox.svg"
   inkscape:version="0.92.2 (5c3e80d, 2017-08-06)"><metadata
     id="metadata45"><rdf:RDF><cc:Work
         rdf:about=""><dc:format>image/svg+xml</dc:format><dc:type
           rdf:resource="http://purl.org/dc/dcmitype/StillImage" /><dc:title /></cc:Work></rdf:RDF></metadata><defs
     id="defs43" /><sodipodi:namedview
     pagecolor="#ffffff"
     bordercolor="#666666"
     borderopacity="1"
     objecttolerance="10"
     gridtolerance="10"
     guidetolerance="10"
     inkscape:pageopacity="0"
     inkscape:pageshadow="2"
     inkscape:window-width="1280"
     inkscape:window-height="945"
     id="namedview41"
     showgrid="false"
     inkscape:zoom="0.4609375"
     inkscape:cx="319.77359"
     inkscape:cy="221.1423"
     inkscape:window-x="-9"
     inkscape:window-y="-9"
     inkscape:window-maximized="1"
     inkscape:current-layer="g8" /><g
     id="g858"
     transform="translate(1.5340642)"><g
       transform="matrix(1.5673305,0,0,1,-145.23661,0)"
       id="g8"><rect
         style="opacity:1;fill:#5fbcd3;fill-opacity:1;stroke:none;stroke-width:0.34060571;stroke-linecap:butt;stroke-miterlimit:4;stroke-dasharray:none;stroke-dashoffset:0;stroke-opacity:1;paint-order:normal"
         id="rect841"
         width="326.3295"
         height="511.65939"
         x="92.858147"
         y="1.4060147"
         ry="29.706141" /><rect
         ry="27.39151"
         y="21.339638"
         x="108.95308"
         height="471.79214"
         width="294.83176"
         id="rect843"
         style="opacity:1;fill:#ffe680;fill-opacity:1;stroke:none;stroke-width:0.31088212;stroke-linecap:butt;stroke-miterlimit:4;stroke-dasharray:none;stroke-dashoffset:0;stroke-opacity:1;paint-order:normal" /><g
         id="g979"
         transform="matrix(2.2270874,0,0,3.490582,131.28219,51.061189)"><g
           id="g894"><g
             id="g850"><g
               id="g846"
               transform="rotate(-22.841203,89.488588,95.497576)"><g
                 id="g838"><g
                   id="g836"><path
                     id="path834"
                     d="m 63.298,84.602 c 9.878,8.14 22.859,2.689 30.54,-5.806 0.601,-0.664 1.281,-1.26 1.999,-1.828 3.252,-0.153 6.785,0.214 9.682,1.828 0,0 -5.193,3.922 -7.167,8.226 0,0 5.823,1.186 10.396,-1.694 0,0 -0.574,6.88 -5.447,12.828 -1.525,0.467 -3.165,0.883 -4.948,1.236 -30.029,5.917 -38.67,-11.149 -38.67,-11.149 z"
                     style="fill:#d45136"
                     inkscape:connector-curvature="0" /></g></g><g
                 id="g844"><g
                   id="g842"><path
                     id="path840"
                     d="m 98.352,87.022 c 1.974,-4.304 7.167,-8.226 7.167,-8.226 -2.897,-1.614 -6.43,-1.981 -9.682,-1.828 8.477,-6.694 24.205,-6.947 24.205,-6.947 0,0 7.367,20.744 -16.741,28.135 4.874,-5.948 5.447,-12.828 5.447,-12.828 -4.573,2.88 -10.396,1.694 -10.396,1.694 z"
                     style="fill:#d8d8d8"
                     inkscape:connector-curvature="0" /></g></g></g><path
               id="path848"
               d="m 81.692,78.792 c 0,19.177 0,34.936 -34.723,34.722 H 46.334 C 11.612,115.895 11.612,97.969 11.612,78.792 v -0.566 c 0,-19.176 15.545,-34.721 34.722,-34.721 h 0.635 c 19.176,0 34.723,15.545 34.723,34.721 z"
               style="clip-rule:evenodd;fill:#e76541;fill-rule:evenodd"
               inkscape:connector-curvature="0" /></g><g
             id="g892"><g
               id="g864"><g
                 id="g856"><path
                   id="path852"
                   d="m 65.785,20.027 c 0,0 9.023,-12.653 26.426,-12.653 0,0 1.751,16.41 -9.369,29.097"
                   style="clip-rule:evenodd;fill:#e76541;fill-rule:evenodd"
                   inkscape:connector-curvature="0" /><path
                   id="path854"
                   d="m 65.946,23.724 c 0,0 6.994,-9.809 20.485,-9.809 0,0 1.357,12.721 -7.264,22.555"
                   style="clip-rule:evenodd;fill:#e49788;fill-rule:evenodd"
                   inkscape:connector-curvature="0" /></g><g
                 id="g862"><path
                   id="path858"
                   d="m 26.527,20.027 c 0,0 -9.023,-12.653 -26.427,-12.653 0,0 -1.751,16.41 9.37,29.097"
                   style="clip-rule:evenodd;fill:#e76541;fill-rule:evenodd"
                   inkscape:connector-curvature="0" /><path
                   id="path860"
                   d="m 26.366,23.724 c 0,0 -6.994,-9.809 -20.485,-9.809 0,0 -1.357,12.721 7.264,22.555"
                   style="clip-rule:evenodd;fill:#e49788;fill-rule:evenodd"
                   inkscape:connector-curvature="0" /></g></g><g
               id="g872"><path
                 id="path866"
                 d="m 46.65,12.98 c 0,0 -36.619,0 -45.561,46.228 0,0 34.206,-6.913 45.562,10.813 9.225,-15.88 45.56,-10.813 45.56,-10.813 C 83.269,12.98 46.65,12.98 46.65,12.98 Z"
                 style="clip-rule:evenodd;fill:#e76541;fill-rule:evenodd"
                 inkscape:connector-curvature="0" /><path
                 id="path868"
                 d="m 20.929,23.015 c 0,0 5.352,2.384 13.23,13.881 8.368,12.214 6.463,27.1 6.463,27.1 0,0 -10.153,-7.33 -39.533,-4.787 0,-0.001 1.986,-22.952 19.84,-36.194 z"
                 style="clip-rule:evenodd;fill:#d8d8d8;fill-rule:evenodd"
                 inkscape:connector-curvature="0" /><path
                 id="path870"
                 d="m 72.558,23.015 c 0,0 -5.353,2.384 -13.23,13.881 -8.368,12.214 -6.464,27.1 -6.464,27.1 0,0 10.153,-7.33 39.534,-4.787 -10e-4,-0.001 -1.986,-22.952 -19.84,-36.194 z"
                 style="clip-rule:evenodd;fill:#d8d8d8;fill-rule:evenodd"
                 inkscape:connector-curvature="0" /></g><g
               id="g890"><path
                 id="path888"
                 d="m 52.678,63.996 c 0,3.327 -2.698,6.026 -6.026,6.026 -3.33,0 -6.028,-2.699 -6.028,-6.026"
                 style="clip-rule:evenodd;fill:#434849;fill-rule:evenodd"
                 inkscape:connector-curvature="0" /></g></g></g><g
           id="g896" /><g
           id="g898" /><g
           id="g900" /><g
           id="g902" /><g
           id="g904" /><g
           id="g906" /><g
           id="g908" /><g
           id="g910" /><g
           id="g912" /><g
           id="g914" /><g
           id="g916" /><g
           id="g918" /><g
           id="g920" /><g
           id="g922" /><g
           id="g924" /></g><path
         inkscape:connector-curvature="0"
         style="fill:#414b58;stroke-width:0.66267931"
         d="m 200.51939,206.18913 c -2.19299,0 -3.96994,-2.7859 -3.96994,-6.22222 0,-4.34559 -2.25599,-7.88147 -5.02859,-7.88147 -2.77209,0 -5.02807,3.53505 -5.02807,7.88147 0,3.43632 -1.77695,6.22222 -3.96995,6.22222 -2.19299,0 -3.96994,-2.7859 -3.96994,-6.22222 0,-11.20745 5.81729,-20.3259 12.96796,-20.3259 7.15119,0 12.96848,9.11762 12.96848,20.3259 0,3.43632 -1.77748,6.22222 -3.96995,6.22222 z"
         id="path854-3" /><path
         id="path995"
         d="m 287.33298,206.18913 c -2.19299,0 -3.96994,-2.7859 -3.96994,-6.22222 0,-4.34559 -2.25599,-7.88147 -5.02859,-7.88147 -2.77209,0 -5.02807,3.53505 -5.02807,7.88147 0,3.43632 -1.77695,6.22222 -3.96995,6.22222 -2.19299,0 -3.96994,-2.7859 -3.96994,-6.22222 0,-11.20745 5.81729,-20.3259 12.96796,-20.3259 7.15119,0 12.96848,9.11762 12.96848,20.3259 0,3.43632 -1.77748,6.22222 -3.96995,6.22222 z"
         style="fill:#414b58;stroke-width:0.66267931"
         inkscape:connector-curvature="0" /></g></g><g
     id="g10" /><g
     id="g12" /><g
     id="g14" /><g
     id="g16" /><g
     id="g18" /><g
     id="g20" /><g
     id="g22" /><g
     id="g24" /><g
     id="g26" /><g
     id="g28" /><g
     id="g30" /><g
     id="g32" /><g
     id="g34" /><g
     id="g36" /><g
     id="g38" /></svg>