<?xml version="1.0" encoding="UTF-8" standalone="no"?>
<svg
   xmlns:dc="http://purl.org/dc/elements/1.1/"
   xmlns:cc="http://creativecommons.org/ns#"
   xmlns:rdf="http://www.w3.org/1999/02/22-rdf-syntax-ns#"
   xmlns:svg="http://www.w3.org/2000/svg"
   xmlns="http://www.w3.org/2000/svg"
   xmlns:sodipodi="http://sodipodi.sourceforge.net/DTD/sodipodi-0.dtd"
   xmlns:inkscape="http://www.inkscape.org/namespaces/inkscape"
   version="1.1"
   id="Capa_1"
   x="0px"
   y="0px"
   width="1200px"
   height="1848px"
   viewBox="0 0 1200 1848"
   enable-background="new 0 0 1200 1848"
   xml:space="preserve"
   sodipodi:docname="Pinguin fertig .svg"
   inkscape:version="1.0 (4035a4fb49, 2020-05-01)"><metadata
   id="metadata81"><rdf:RDF><cc:Work
       rdf:about=""><dc:format>image/svg+xml</dc:format><dc:type
         rdf:resource="http://purl.org/dc/dcmitype/StillImage" /></cc:Work></rdf:RDF></metadata><sodipodi:namedview
   inkscape:document-rotation="0"
   pagecolor="#ffffff"
   bordercolor="#666666"
   borderopacity="1"
   objecttolerance="10"
   gridtolerance="10"
   guidetolerance="10"
   inkscape:pageopacity="0"
   inkscape:pageshadow="2"
   inkscape:window-width="1858"
   inkscape:window-height="1057"
   id="namedview79"
   showgrid="false"
   inkscape:zoom="0.46942938"
   inkscape:cx="299.5076"
   inkscape:cy="947.73193"
   inkscape:window-x="-8"
   inkscape:window-y="-8"
   inkscape:window-maximized="1"
   inkscape:current-layer="Capa_1" />
<defs
   id="defs32"><filter
   id="blur0"
   x="-0.071021455"
   y="-0.25069095"
   height="1.5013819"
   width="1.1420429"><feGaussianBlur
     in="SourceGraphic"
     stdDeviation="18.903455"
     id="feGaussianBlur2" /></filter><linearGradient
   id="gradient3"
   gradientUnits="userSpaceOnUse"
   x1="624.3491"
   spreadMethod="reflect"
   x2="304.3991"
   y1="336.8848"
   y2="341.8965">
<stop
   offset="0.0%"
   stop-color="#D1812A"
   stop-opacity="1.0"
   id="stop5" /><stop
   offset="97.77778%"
   stop-color="#FFB043"
   stop-opacity="1.0"
   id="stop7" /></linearGradient><linearGradient
   id="gradient4"
   gradientUnits="userSpaceOnUse"
   x1="619.5565"
   spreadMethod="reflect"
   x2="939.5105"
   y1="336.8848"
   y2="341.8965">
<stop
   offset="0.0%"
   stop-color="#D1812A"
   stop-opacity="1.0"
   id="stop10" /><stop
   offset="97.77778%"
   stop-color="#FFB043"
   stop-opacity="1.0"
   id="stop12" /></linearGradient><linearGradient
   id="gradient14"
   gradientUnits="userSpaceOnUse"
   x1="608.0385"
   spreadMethod="reflect"
   x2="598.7806"
   y1="934.5249"
   y2="1182.2644"
   gradientTransform="rotate(180,581.81591,893.72681)">
<stop
   offset="0.0%"
   stop-color="#339014"
   stop-opacity="1.0"
   id="stop15" /><stop
   offset="99.77778%"
   stop-color="#47F23F"
   stop-opacity="1.0"
   id="stop17" /></linearGradient><linearGradient
   id="gradient15"
   gradientUnits="userSpaceOnUse"
   x1="854.2954"
   spreadMethod="reflect"
   x2="682.8407"
   y1="961.74744"
   y2="920.9706"
   gradientTransform="rotate(180,581.81591,893.72681)">
<stop
   offset="0.17014568%"
   stop-color="#1F7B18"
   stop-opacity="1.0"
   id="stop20" /><stop
   offset="48.88889%"
   stop-color="#33C637"
   stop-opacity="1.0"
   id="stop22" /><stop
   offset="99.94869%"
   stop-color="#58FF53"
   stop-opacity="1.0"
   id="stop24" /></linearGradient><linearGradient
   id="gradient16"
   gradientUnits="userSpaceOnUse"
   x1="604.0541"
   spreadMethod="reflect"
   x2="596.1918"
   y1="1138.5793"
   y2="958.0045"
   gradientTransform="rotate(180,577.41119,898.13153)">
<stop
   offset="0.0%"
   stop-color="#FFC24C"
   stop-opacity="1.0"
   id="stop27" /><stop
   offset="99.333336%"
   stop-color="#F1963B"
   stop-opacity="1.0"
   id="stop29" /></linearGradient>








</defs>



<g
   id="g914"><path
     transform="matrix(-0.81449449,0,0,-1.7290321,1041.0845,2047.7084)"
     id="path34"
     d="m 584.4247,523.684 c -175.6693,0 -319.3987,-40.7189 -319.3987,-90.4865 0,-49.7676 143.7294,-90.4865 319.3987,-90.4865 175.66905,0 319.3983,40.7189 319.3983,90.4865 0,49.7676 -143.72925,90.4865 -319.3983,90.4865"
     stroke-miterlimit="10"
     stroke-opacity="0"
     stroke-width="2"
     stroke="#494949"
     filter="url(#blur0)"
     fill-opacity="1"
     fill="#7b7c7a"
     layer="7"
     style="opacity:0.37907;filter:url(#blur0)" /><g
     id="g1003"
     transform="translate(-8.8094382,8.8094382)"><g
       id="g40"
       transform="rotate(180,581.81591,893.72681)"><path
   layer="3"
   fill="#1a1919"
   fill-opacity="1"
   stroke="#494949"
   stroke-width="2"
   stroke-opacity="0"
   stroke-miterlimit="10"
   d="m 388.92664,1060.829 c 0,0 -106.78754,-361.35415 -106.78754,-361.35415 0,0 -42.48995,-86.98215 -92.31757,27.28115 0,0 -73.22168,99.28196 106.78737,361.3542 0,0 6.99022,44.6927 92.31774,-27.2812"
   id="path36" />
<path
   layer="3"
   fill="#1a1919"
   fill-opacity="1"
   stroke="#494949"
   stroke-width="2"
   stroke-opacity="0"
   stroke-miterlimit="10"
   d="m 830.49835,1078.1265 c 0,0 106.78742,-361.35434 106.78742,-361.35434 0,0 42.49003,-86.9823 92.31753,27.28104 0,0 73.2219,99.2821 -106.78726,361.3546 0,0 -6.99017,44.6929 -92.31769,-27.2813"
   id="path38" />
</g><g
       id="g46"
       transform="rotate(180,581.81591,893.72681)"><path
   style="fill:url(#gradient3)"
   layer="5"
   fill="url(#gradient3)"
   stroke="#494949"
   stroke-width="2"
   stroke-opacity="0"
   stroke-miterlimit="10"
   d="m 614.5729,376.54654 c 0,0 -57.72866,327.27402 -114.9118,164.03596 -57.18533,-163.23774 -39.64917,-151.0561 -37.61633,-151.50373 30.79793,-6.78174 49.30136,35.2749 59.14173,4.36133 16.5868,-52.11323 49.0387,10.44244 49.9353,7.9807 14.146,-38.83944 43.4511,-24.87426 43.4511,-24.87426 0,0 0,0 0,0 0,0 0,0 0,0"
   id="path42" />
<path
   style="fill:url(#gradient4)"
   layer="5"
   fill="url(#gradient4)"
   stroke="#494949"
   stroke-width="2"
   stroke-opacity="0"
   stroke-miterlimit="10"
   d="m 629.33276,376.54654 c 0,0 57.72974,327.27402 114.91564,164.03596 57.18544,-163.23774 39.6492,-151.0561 37.61635,-151.50373 -30.79785,-6.78174 -49.30125,35.2749 -59.14175,4.36133 -16.5886,-52.11323 -49.0426,10.44244 -49.9392,7.9807 -14.146,-38.83944 -43.45104,-24.87426 -43.45104,-24.87426 0,0 0,0 0,0 0,0 0,0 0,0"
   id="path44" />
</g><path
       layer="1"
       fill="#1a1919"
       fill-opacity="1"
       stroke="#494949"
       stroke-width="2"
       stroke-opacity="0"
       stroke-miterlimit="10"
       d="m 557.05577,328.02862 c 119.5596,0 200.33305,73.8662 260.90417,232.0711 34.07132,88.9905 71.76084,118.2966 71.76088,231.4272 10e-5,314.25118 -151.7347,541.55168 -338.54664,541.55168 -186.81189,10e-5 -340.76916,-227.3003 -340.76926,-541.55143 -1.5e-4,-131.98545 31.15256,-134.45555 76.2689,-231.46735 62.3037,-133.9686 162.0311,-232.031 270.38195,-232.0312"
       id="path48" /></g><g
     id="g1008"
     transform="translate(-8.8094382,8.8094382)"><path
       id="path52"
       d="m 504.03618,522.08912 c 28.60217,0 52.00404,31.8959 52.00404,70.8796 0,38.9837 -23.40187,70.8796 -52.00404,70.8796 -28.60216,0 -52.00406,-31.8959 -52.00406,-70.8796 0,-38.9837 23.4019,-70.8796 52.00406,-70.8796"
       stroke-miterlimit="10"
       stroke-opacity="1"
       stroke-width="2"
       stroke="#989898"
       fill-opacity="1"
       fill="#ffffff"
       layer="2"
       style="stroke:none" /><path
       id="path54"
       d="m 511.65752,586.46182 c 13.91064,0 25.2921,11.7556 25.2921,26.1235 0,14.3679 -11.38146,26.1235 -25.2921,26.1235 -13.9108,0 -25.29224,-11.7556 -25.29224,-26.1235 0,-14.3679 11.38144,-26.1235 25.29224,-26.1235"
       stroke-miterlimit="10"
       stroke-opacity="1"
       stroke-width="2"
       stroke="#989898"
       fill-opacity="1"
       fill="#595959"
       layer="2"
       style="fill:#000000;fill-opacity:1;stroke-width:0;stroke-miterlimit:10;stroke-dasharray:none" /><path
       id="path56"
       d="m 516.00162,601.65752 c 6.0829,0 11.0598,6.0482 11.0598,13.4404 0,7.3922 -4.9769,13.4404 -11.0598,13.4404 -6.0829,0 -11.0598,-6.0482 -11.0598,-13.4404 0,-7.3922 4.9769,-13.4404 11.0598,-13.4404"
       stroke-miterlimit="10"
       stroke-opacity="1"
       stroke-width="2"
       stroke="#989898"
       fill-opacity="1"
       fill="#ffffff"
       layer="2"
       style="stroke-width:0;stroke-miterlimit:10;stroke-dasharray:none" /></g><g
     id="g1013"
     transform="translate(-8.8094382,8.8094382)"><path
       id="path60"
       d="m 606.70902,522.08912 c -28.60216,0 -52.004,31.8959 -52.004,70.8796 0,38.9837 23.40184,70.8796 52.004,70.8796 28.6022,0 52.00404,-31.8959 52.00404,-70.8796 0,-38.9837 -23.40184,-70.8796 -52.00404,-70.8796"
       stroke-miterlimit="10"
       stroke-opacity="1"
       stroke-width="2"
       stroke="#989898"
       fill-opacity="1"
       fill="#ffffff"
       layer="2"
       style="stroke-width:0;stroke-miterlimit:10;stroke-dasharray:none" /><path
       id="path62"
       d="m 599.08772,586.46182 c -13.9107,0 -25.29214,11.7556 -25.29214,26.1235 0,14.3679 11.38144,26.1235 25.29214,26.1235 13.91074,0 25.2922,-11.7556 25.2922,-26.1235 0,-14.3679 -11.38146,-26.1235 -25.2922,-26.1235"
       stroke-miterlimit="10"
       stroke-opacity="1"
       stroke-width="2"
       stroke="#989898"
       fill-opacity="1"
       fill="#595959"
       layer="2"
       style="fill:#000000;fill-opacity:1;stroke-width:0;stroke-miterlimit:10;stroke-dasharray:none" /><path
       id="path64"
       d="m 594.74358,601.65752 c -6.08286,0 -11.05982,6.0482 -11.05982,13.4404 0,7.3922 4.97696,13.4404 11.05982,13.4404 6.08288,0 11.05984,-6.0482 11.05984,-13.4404 0,-7.3922 -4.97696,-13.4404 -11.05984,-13.4404"
       stroke-miterlimit="10"
       stroke-opacity="1"
       stroke-width="2"
       stroke="#989898"
       fill-opacity="1"
       fill="#ffffff"
       layer="2"
       style="stroke:none" /></g><path
     style="stroke:none"
     id="path68"
     d="m 546.41192,685.01896 c 96.93133,0 217.5025,197.9117 217.50256,352.81654 6e-5,154.9049 -119.07507,267.5162 -216.0064,267.5162 -96.93134,0 -220.52265,-118.4268 -220.52265,-273.3316 0,-154.90484 122.09535,-347.00104 219.02649,-347.00114"
     stroke-miterlimit="10"
     stroke-opacity="1"
     stroke-width="2"
     stroke="#989898"
     fill-opacity="1"
     fill="#ffffff"
     layer="4" /><g
     id="g989"
     transform="translate(-8.8094382,8.8094382)"><path
       id="path70"
       d="m 316.70142,662.46712 c 196.2407,115.423 571.27955,-68.4061 565.8189,23.915 -5.46067,92.3212 60.00515,15.957 -59.02504,87.4331 -194.17132,116.5973 -523.60443,53.7994 -600.14626,-66.2782 -11.67014,-18.308 -1.6564,-46.4137 5.7409,-57.0059 41.91836,-60.0223 3.55777,-37.5018 87.6115,11.936"
       stroke-miterlimit="10"
       stroke-opacity="0"
       stroke-width="2"
       stroke="#494949"
       fill="url(#gradient14)"
       layer="6"
       style="fill:url(#gradient14)" /><path
       id="path72"
       d="m 301.30212,1011.483 c 0,0 62.4875,-334.78308 49.9903,-267.82728 12.4972,-66.9558 17.4679,-78.0522 32.2259,-64.7788 29.7718,26.7771 78.91605,8.709 78.91605,8.709 19.72905,2.1785 19.72905,2.1785 7.23181,69.1331 0,0 -49.99029,267.82768 -49.99029,267.82768 -12.49757,66.9567 17.15443,84.3995 -32.22627,64.7798 -22.7876,-9.0539 -78.91607,-8.7098 -78.91607,-8.7098 -51.6546,11.2854 -19.72913,-2.177 -7.23143,-69.1337"
       stroke-miterlimit="10"
       stroke-opacity="0"
       stroke-width="2"
       stroke="#494949"
       fill="url(#gradient15)"
       layer="6"
       style="fill:url(#gradient15)" /></g><path
     style="fill:url(#gradient16);stroke:none"
     layer="6"
     fill="url(#gradient16)"
     stroke="#ffa558"
     stroke-width="2"
     stroke-opacity="1"
     stroke-miterlimit="10"
     d="m 542.26733,669.79186 c 6.69055,0.5874 -1.7251,-1.5413 1.86205,-4.4924 3.88575,-3.1988 19.6686,-7.262 24.5255,-6.9895 33.10286,1.8415 33.9247,19.5161 33.9247,19.5161 0,0 6.47125,63.4192 -24.99743,127.2252 -31.47071,63.80726 -40.14527,48.958 -35.31482,-135.2594 24.97741,182.5806 17.98071,198.2897 -20.28638,138.3141 -38.26797,-59.9757 -38.78113,-123.7223 -38.78113,-123.7223 0,0 -1.11904,-17.6577 31.58286,-23.1145 4.7963,-0.8005 20.92935,1.5078 25.14224,4.2615 3.88879,2.5417 -4.24378,5.5769 2.34241,4.2612"
     id="path74" /></g></svg>
