<?xml version="1.0" encoding="UTF-8"?>
<svg viewBox="0 0 90 135" xmlns="http://www.w3.org/2000/svg">
 <g transform="translate(-485.53 -6.8979)">
  <g transform="translate(464.67 -3.0357)">
   <path d="m34.897 9.9336h61.92a14.04 14.04 0 0 1 14.04 14.04v106.92a14.04 14.04 0 0 1 -14.04 14.04h-61.92a14.04 14.04 0 0 1 -14.04 -14.04v-106.92a14.04 14.04 0 0 1 14.04 -14.04"/>
   <path d="m38.857 14.934h54a13 13 0 0 1 13 13v99a13 13 0 0 1 -13 13h-54a13 13 0 0 1 -13 -13v-99a13 13 0 0 1 13 -13" fill="#f2f2f2"/>
  </g>
  <path d="m548.21 77.342c-0.26671 0.74671-0.5067 1.52-0.72 2.32-0.16004 0.74671-0.37337 1.4934-0.64 2.24h0.16c-4.5334 1.8667-8.9867 3.7867-13.36 5.76-4.3734 1.92-8.56 4.2667-12.56 7.04l-4.08 0.16-4.08 0.16 0.16-0.16c2.56-2.0266 5.2533-3.8666 8.08-5.52 2.88-1.6533 5.8133-3.1733 8.8-4.56 2.9866-1.44 6-2.7733 9.04-4s6.08-2.4 9.12-3.52l0.08 0.08m-30.4 41.2c0.47999-3.84 1.0933-7.68 1.84-11.52 0.74666-3.8933 1.7333-7.68 2.96-11.36 3.52-2.56 7.28-4.7466 11.28-6.56 4.0533-1.8666 8.16-3.6533 12.32-5.36v0.08c-1.8667 5.9734-3.8134 11.947-5.84 17.92-2.0267 5.92-4.24 11.707-6.64 17.36v0.08c-2.72-0.21334-5.36-0.32-7.92-0.32s-5.2-0.10667-7.92-0.32h-0.08m-8.96-55.04c7.1467-0.10661 14.347-0.26661 21.6-0.48 7.3066-0.21328 14.613-0.31994 21.92-0.32l0.08 0.08c-0.64004 2.1867-1.2534 4.3467-1.84 6.48s-1.2 4.2934-1.84 6.48h-0.24c-3.36 1.2267-6.72 2.48-10.08 3.76-3.36 1.2267-6.6667 2.6134-9.92 4.16-3.2 1.4934-6.3467 3.2-9.44 5.12-3.0933 1.8667-6.0267 4-8.8 6.4h-0.4l-1.2 0.16c0.05333-1.3866 0.08-2.7466 0.08-4.08v-4c0-3.52-0.02667-6.9866-0.08-10.4-0.05333-3.4666-0.08-6.96-0.08-10.48l0.08-2.56 0.16-0.32" fill="#333"/>
  <path d="m498.27 39.362c4.5071-1.0016 4.992-3.6414 5.332-8.4961-0.78317 1.297-2.207 2.2541-4.5312 2.2461-3.8203-0.01317-6.3792-2.2349-5.4688-7.0312 0.91796-4.8357 7.793-6.7107 10.918-11.719 3.125 5.008 10 6.883 10.918 11.719 0.9105 4.7964-1.543 7.0177-5.4688 7.0312-2.3242 0.00801-3.7481-0.94911-4.5312-2.2461 0.34004 4.8547 0.82494 7.4945 5.332 8.4961h-12.5z"/>
  <path d="m506.68 71.362c2.7042-0.60094 2.9952-2.1848 3.1992-5.0976-0.4699 0.77818-1.3242 1.3525-2.7188 1.3476-2.2922-0.0079-3.8276-1.3409-3.2812-4.2188 0.55078-2.9014 4.6758-4.0264 6.5508-7.0312 1.875 3.0048 6 4.1298 6.5508 7.0312 0.5463 2.8778-0.92579 4.2106-3.2812 4.2188-1.3945 0.00481-2.2488-0.56947-2.7188-1.3476 0.20402 2.9128 0.49496 4.4967 3.1992 5.0976h-7.5z"/>
  <path d="m551.68 70.362c2.7042-0.60094 2.9952-2.1848 3.1992-5.0976-0.4699 0.77818-1.3242 1.3525-2.7188 1.3476-2.2922-0.0079-3.8276-1.3409-3.2812-4.2188 0.55078-2.9014 4.6758-4.0264 6.5508-7.0312 1.875 3.0048 6 4.1298 6.5508 7.0312 0.5463 2.8778-0.92579 4.2106-3.2812 4.2188-1.3945 0.00481-2.2488-0.56947-2.7188-1.3476 0.20402 2.9128 0.49496 4.4967 3.1992 5.0976h-7.5z"/>
  <path d="m534.68 126.36c2.7042-0.60094 2.9952-2.1848 3.1992-5.0976-0.4699 0.77818-1.3242 1.3525-2.7188 1.3476-2.2922-0.0079-3.8276-1.3409-3.2812-4.2188 0.55078-2.9014 4.6758-4.0264 6.5508-7.0312 1.875 3.0048 6 4.1298 6.5508 7.0312 0.5463 2.8778-0.92579 4.2106-3.2812 4.2188-1.3945 0.00481-2.2488-0.56947-2.7188-1.3476 0.20402 2.9128 0.49496 4.4967 3.1992 5.0976h-7.5z"/>
  <path d="m513.68 127.36c2.7042-0.60094 2.9952-2.1848 3.1992-5.0976-0.4699 0.77818-1.3242 1.3525-2.7188 1.3476-2.2922-0.0079-3.8276-1.3409-3.2812-4.2188 0.55078-2.9014 4.6758-4.0264 6.5508-7.0312 1.875 3.0048 6 4.1298 6.5508 7.0312 0.5463 2.8778-0.92579 4.2106-3.2812 4.2188-1.3945 0.00481-2.2488-0.56947-2.7188-1.3476 0.20402 2.9128 0.49496 4.4967 3.1992 5.0976h-7.5z"/>
  <path d="m542.68 98.362c2.7042-0.60094 2.9952-2.1848 3.1992-5.0976-0.4699 0.77818-1.3242 1.3525-2.7188 1.3476-2.2922-0.0079-3.8276-1.3409-3.2812-4.2188 0.55078-2.9014 4.6758-4.0264 6.5508-7.0312 1.875 3.0048 6 4.1298 6.5508 7.0312 0.5463 2.8778-0.92579 4.2106-3.2812 4.2188-1.3945 0.00481-2.2488-0.56947-2.7188-1.3476 0.20402 2.9128 0.49496 4.4967 3.1992 5.0976h-7.5z"/>
  <path d="m527.68 66.362c2.7042-0.60094 2.9952-2.1848 3.1992-5.0976-0.4699 0.77818-1.3242 1.3525-2.7188 1.3476-2.2922-0.0079-3.8276-1.3409-3.2812-4.2188 0.55078-2.9014 4.6758-4.0264 6.5508-7.0312 1.875 3.0048 6 4.1298 6.5508 7.0312 0.5463 2.8778-0.92579 4.2106-3.2812 4.2188-1.3945 0.00481-2.2488-0.56947-2.7188-1.3476 0.20402 2.9128 0.49496 4.4967 3.1992 5.0976h-7.5z"/>
  <path d="m501.68 100.36c2.7042-0.60094 2.9952-2.1848 3.1992-5.0976-0.4699 0.77818-1.3242 1.3525-2.7188 1.3476-2.2922-0.0079-3.8276-1.3409-3.2812-4.2188 0.55078-2.9014 4.6758-4.0264 6.5508-7.0312 1.875 3.0048 6 4.1298 6.5508 7.0312 0.5463 2.8778-0.92579 4.2106-3.2812 4.2188-1.3945 0.00481-2.2488-0.56947-2.7188-1.3476 0.20402 2.9128 0.49496 4.4967 3.1992 5.0976h-7.5z"/>
  <path d="m535.35 14.116v3.8694c-2.9426 3.5519-5.1074 6.9546-6.4944 10.208-1.3741 3.2537-2.1713 6.838-2.3917 10.753h-4.9194c0.32407-2.6315 0.7324-4.8611 1.225-6.6889s1.1667-3.6426 2.0222-5.4444c0.47962-1.0889 1.3157-2.5407 2.5083-4.3556 1.2056-1.8148 2.1907-3.1305 2.9556-3.9472h-12.347v-4.3944h17.442"/>
 </g>
</svg>
