<?xml version="1.0" encoding="UTF-8"?>
<svg enable-background="new 0 0 378.368 429.551" viewBox="0 0 378.368 429.551" xmlns="http://www.w3.org/2000/svg">
 <path d="m115.628,15.768c-4.608-2.988-10.08-4.716-16.56-5.328-6.588-.792-14.472-1.512-22.14,1.584-7.776,3.168-18.792,10.296-23.472,17.352-4.536,6.948-4.716,15.048-4.032,24.3 .576,9.216 4.824,19.296 7.488,30.672 2.628,11.376 5.796,28.008 7.992,37.116 2.088,9 3.6,14.364 4.536,16.488-8.1,7.02-15.12,15.012-21.348,24.552-6.3,9.468-9.792,19.224-15.732,32.04-5.976,12.744-14.832,31.284-19.476,43.956-4.68,12.6-7.488,20.232-8.28,31.213-.9,10.799.216,26.172 3.204,33.623 2.88,7.236 6.516,8.713 14.4,10.404 7.884,1.656 23.796.359 32.58,0 8.712-.467 15.768-1.547 19.224-2.123 3.276-.613 3.636-1.008.792-1.332-5.04,4.895-8.604,11.555-10.692,20.268-2.268,8.82-2.844,20.809-1.872,31.5 .972,10.477 2.304,22.141 8.028,30.959 5.76,8.641 15.444,15.77 26.136,20.846 10.584,5.039 25.776,8.387 36.828,9.07 10.908.396 19.872-2.303 28.296-5.867 8.388-3.637 16.164-9.035 21.384-15.229 4.932-6.227 6.948-14.543 8.532-21.887 1.477-7.561 1.367-15.266.793-22.141-.721-6.805-2.089-12.852-4.537-18.432l22.141.539c-1.188,5.76-1.584,13.141-1.045,22.68 .504,9.504.361,24.193 3.996,33.912 3.564,9.504 8.424,17.893 17.352,23.221 8.965,5.291 23.977,8.748 35.748,8.279 11.701-.719 24.912-7.055 33.66-11.771 8.496-4.896 13.068-8.783 17.605-16.523 4.5-7.74 7.883-19.188 9.322-29.629 1.332-10.729-.035-23.939-1.332-33.371-1.367-9.396-2.34-15.768-6.658-22.428-4.393-6.697-10.836-12.564-19.477-17.605l16.02-10.943c7.705,2.699 15.66,3.709 24.264,3.42 8.641-.432 20.916-2.16 26.965-5.615 5.76-3.492 7.813-7.848 8.244-15.301 .287-7.668-1.549-17.676-5.508-29.736-3.961-12.24-11.018-30.635-17.965-41.976-7.057-11.268-13.859-17.064-24.012-25.02-10.332-7.992-22.465-15.336-37.08-22.428 3.061-8.748 5.328-18.792 6.66-30.672 1.332-11.952 1.729-25.164 1.332-40.32 4.5-2.52 7.92-6.48 10.943-12.024 2.881-5.616 6.264-14.076 6.408-21.348 .037-7.416-2.016-16.344-6.156-22.356-4.428-6.084-12.168-11.268-19.188-13.608-7.02-2.304-14.039-2.16-22.428-.54-8.461,1.548-17.568,4.608-27.756,9.612-6.66-4.644-14.939-8.1-25.381-10.656-10.584-2.664-26.567-4.176-36.828-4.536-10.188-.36-15.696-.396-24.012,2.664-8.388,3.024-16.884,8.136-25.884,15.48l-12.022-5.005z" fill="#ebc275" fill-rule="evenodd"/>
 <path d="m92.228 342.18c-3.132 6.842-4.752 14.328-2.376 22.068 2.304 7.633 7.308 18.432 16.56 23.652 9.36 5.221 27.468 9.396 38.628 7.092 10.908-2.736 24.516-10.367 26.82-22.068 2.16-11.807-2.772-38.916-13.428-47.303-10.836-8.316-39.312-5.221-50.436-2.377-11.124 2.772-12.816 11.954-15.768 18.936z" fill="#948547" fill-rule="evenodd"/>
 <path d="m242.82 339.8c-3.492 7.74-1.332 22.787 0.791 31.535 1.908 8.676 3.637 17.568 11.016 19.729 7.523 1.873 25.236-1.729 33.121-7.885 7.631-6.406 11.844-20.662 12.635-29.158 0.504-8.533-2.664-16.561-8.676-21.313-6.047-4.861-18.648-8.244-26.82-7.092-8.173 1.26-18.577 6.409-22.067 14.184z" fill="#948547" fill-rule="evenodd"/>
 <path d="m262.508,37.836c11.195-.108 18.936,1.692 23.652,5.544 4.643,3.852 4.895,11.52 3.959,17.316-1.08,5.652-4.5,11.124-10.26,16.56-14.58-8.172-23.111-15.479-26.027-22.068-2.915-6.66-.072-12.348 8.676-17.352z" fill="#948547" fill-rule="evenodd"/>
 <path d="m117.464,43.38c-13.896-2.664-23.796-3.456-29.988-2.376-6.264.972-5.94,3.672-7.092,8.676-1.224,4.968-1.224,12.06 0,21.276 9.648,2.484 17.352,1.44 23.652-3.132 6.192-4.716 10.62-12.636 13.428-24.444z" fill="#948547" fill-rule="evenodd"/>
 <path d="m143.348,35.496c-5.724-5.436-12.312-9.9-20.304-13.68-8.172-3.78-17.748-9-27.324-8.856-9.54.072-22.212,3.6-29.556,9.216-7.524,5.544-14.616,12.852-14.76,24.012-.108,11.16 4.464,24.876 14.004,42.12-6.84-4.86-11.88-11.124-15.12-19.224-3.348-8.244-5.94-20.556-4.428-29.16 1.476-8.712 7.056-16.524 13.284-22.176 6.12-5.616 15.588-9.936 23.256-11.448 7.524-1.62 11.556-3.132 21.816,1.836 10.332,4.932 23.004,13.86 39.132,27.36z" fill-rule="evenodd" stroke="#000" stroke-miterlimit="10" stroke-width=".036"/>
 <path d="m127.472,19.98c11.016-6.156 20.592-10.368 29.556-12.924 8.82-2.592 13.932-2.592 23.256-2.232 9.36.252 23.183,2.628 32.148,4.068 8.783,1.404 15.408,2.628 20.305,4.068-8.533-5.112-18.109-8.64-29.557-10.728-11.484-2.268-27.396-3.024-38.412-1.836-11.124,1.224-21.06,5.868-27.324,9.216-6.264,3.312-9.54,6.624-9.972,10.368z" fill-rule="evenodd" stroke="#000" stroke-miterlimit="10" stroke-width=".036"/>
 <path d="m224.96 36.576c2.449-6.84 6.768-12.816 12.961-18.072 6.191-5.328 14.832-11.34 23.975-13.32 9.037-2.016 21.098-1.476 29.916 1.476 8.641 2.88 16.885 8.352 21.816 15.876 4.789 7.524 9.396 19.224 7.02 28.44-2.482 9.072-9.756 17.388-21.814 25.488 7.127-4.68 11.592-10.656 13.68-18.072 2.016-7.488 2.123-18.324-1.477-26.244-3.889-8.028-11.809-17.964-20.699-21.06-8.928-3.096-21.205-1.764-32.113 2.592-11.016 4.32-21.925 11.772-33.265 22.896z" fill-rule="evenodd" stroke="#000" stroke-miterlimit="10" stroke-width=".036"/>
 <path d="m294.4 82.944c1.871 6.66 2.268 14.436 1.475 23.616-0.936 9.18-3.707 21.744-6.66 31.032-2.986 9.108-6.479 15.696-11.051 23.652-4.752 7.92-10.621 17.28-16.633 23.616-6.047 6.264-12.313 10.728-19.188 13.68 7.703-1.26 14.795-4.212 21.42-8.856 6.588-4.752 12.564-10.188 18.072-19.224 5.363-9.18 11.412-23.184 14.4-35.064 2.916-11.916 3.563-27.108 3.348-35.856-0.361-8.748-2.088-14.328-5.183-16.596z" fill-rule="evenodd" stroke="#000" stroke-miterlimit="10" stroke-width=".036"/>
 <path d="m64.688,92.916c-1.584,11.088-1.908,20.88-1.116,29.916 .72,9 1.764,14.796 5.904,23.616 4.104,8.712 9.684,20.412 18.828,28.44 9.18,7.956 20.952,14.112 35.856,18.864-12.6-6.804-22.788-15.156-31.392-25.884s-14.904-25.128-19.584-37.656c-4.752-12.6-7.452-24.84-8.496-37.296z" fill-rule="evenodd" stroke="#000" stroke-miterlimit="10" stroke-width=".036"/>
 <path d="m123.76 146.3c-9.36-7.092-13.212-14.472-11.952-22.716 1.368-8.352 11.412-22.608 19.728-26.244 8.208-3.744 23.832-2.484 29.232 4.752 5.256 7.344 6.012 20.088 2.412 38.808 0.396-18.684-2.448-30.132-8.964-34.632-6.552-4.5-24.732 1.008-29.844 7.776-5.076 6.804-5.328 17.28-0.612 32.256z" fill-rule="evenodd" stroke="#000" stroke-miterlimit="10" stroke-width=".036"/>
 <path d="m145.2 121.14c5.266 0 9.54 6.145 9.54 13.716s-4.274 13.716-9.54 13.716-9.54-6.145-9.54-13.716 4.274-13.716 9.54-13.716" fill-rule="evenodd" stroke="#000" stroke-miterlimit="10" stroke-width=".036"/>
 <path d="m244.905,145.692c8.676-6.696 12.42-13.536 11.23-21.348-1.332-7.776-10.799-21.384-18.539-24.732-7.775-3.42-22.5-2.376-27.504,4.5-5.004,6.948-5.76,18.792-2.268,36.504-.504-17.568 2.303-28.332 8.424-32.58 6.119-4.176 23.219.9 28.115,7.308 4.753,6.3 4.932,16.272.542,30.348z" fill-rule="evenodd" stroke="#000" stroke-miterlimit="10" stroke-width=".036"/>
 <path d="m224.64 122.09c4.949 0 8.965 5.774 8.965 12.888s-4.016 12.888-8.965 12.888-8.963-5.774-8.963-12.888 4.016-12.888 8.963-12.888" fill-rule="evenodd" stroke="#000" stroke-miterlimit="10" stroke-width=".036"/>
 <path d="m60.62,155.952c-16.308,17.1-29.052,33.444-38.772,49.86-9.792,16.416-15.876,32.256-19.224,47.664-3.348,15.371-3.24,32.76-1.08,43.561 2.016,10.619 3.06,17.82 13.284,19.943 10.296,2.053 25.848-.576 47.628-7.74-19.116,4.465-32.652,4.717-41.724.359-9.036-4.428-11.772-12.563-11.808-26.207 .036-13.896 3.096-33.984 11.808-55.404 8.676-21.492 21.78-45.036 39.888-72.036z" fill-rule="evenodd" stroke="#000" stroke-miterlimit="10" stroke-width=".036"/>
 <path d="m100.87 206.57c-3.636 3.24-6.732 10.152-9.576 21.42-2.808 11.232-5.328 26.1-7.416 45.432 5.112-15.299 8.964-28.332 11.844-39.527 2.772-11.233 4.536-20.197 5.148-27.325z" fill-rule="evenodd" stroke="#000" stroke-miterlimit="10" stroke-width=".036"/>
 <path d="m260.06 213.23c1.225 8.496 4.213 17.531 9.252 27.684 4.969 10.117 11.809 20.771 20.664 32.508-4.643-13.715-9.395-25.344-14.398-35.459-4.969-10.153-10.19-18.253-15.518-24.733z" fill-rule="evenodd" stroke="#000" stroke-miterlimit="10" stroke-width=".036"/>
 <path d="m302.18,160.776c16.92,7.416 30.275,17.784 40.607,31.392 10.225,13.752 17.029,34.632 20.701,49.861 3.563,15.012 11.051,33.119 1.08,39.887-10.225,6.625-30.061,6.625-60.912,0 15.875,8.137 29.088,12.385 40.607,13.285 11.34.719 21.744-2.664 27.324-8.496 5.543-5.977 8.639-10.621 5.543-26.568-3.42-16.199-12.527-52.38-25.092-69.084-12.633-16.705-28.979-26.569-49.858-30.277z" fill-rule="evenodd" stroke="#000" stroke-miterlimit="10" stroke-width=".036"/>
 <path d="m160.844,416.916c-13.86,7.164-27.792,9.648-42.624,7.453-14.904-2.377-35.676-9.865-45.792-20.664-10.116-10.945-13.392-29.232-14.4-43.596-.972-14.473 2.088-30.277 8.496-41.725 6.3-11.412 16.488-21.961 29.196-26.244 12.708-4.355 27.72-4.176 46.152.396-17.388.143-31.392,2.303-42.84,6.623-11.484,4.213-19.404,9.828-25.128,19.225-5.796,9.432-9.216,24.156-8.856,36.936 .324,12.672 3.744,28.512 11.088,38.771 7.38,10.152 18.612,17.785 32.868,21.781 14.22,3.852 31.176,4.069 51.84,1.044z" fill-rule="evenodd" stroke="#000" stroke-miterlimit="10" stroke-width=".036"/>
 <path d="m241.592,425.484c10.367,1.908 20.52,1.367 31.031-1.477 10.512-3.059 23.113-8.818 31.393-15.875 8.137-7.092 13.969-15.049 17.352-26.244 3.168-11.447 3.779-29.592 2.232-40.969-1.621-11.303-6.084-19.08-11.447-26.244-5.365-7.234-9.865-13.787-20.701-16.596-11.016-2.916-25.631-2.916-44.676-.396 11.16-4.643 21.889-6.803 32.867-6.623 10.836.035 23.941,2.016 32.113,7.74 7.992,5.904 13.139,16.057 16.271,26.963 3.096,10.836 2.484,26.316 2.195,37.297-.432,10.691-.936,18.504-4.428,27.324-3.744,8.855-9.504,18.576-16.992,25.127-7.523,6.518-16.523,11.412-27.684,13.285-11.301,1.692-24.334.539-39.526-3.312z" fill-rule="evenodd" stroke="#000" stroke-miterlimit="10" stroke-width=".036"/>
 <path d="m221.29 402.59c-7.92-8.063-12.852-17.928-14.795-30.275-1.945-12.42-0.396-31.824 2.986-43.236 3.313-11.447 8.713-19.547 16.598-24.732-6.877 12.926-11.377 24.445-13.645 35.102-2.232 10.584-1.584 17.387 0 28.043 1.512 10.583 4.32 22.139 8.856 35.098z" fill-rule="evenodd" stroke="#000" stroke-miterlimit="10" stroke-width=".036"/>
 <path d="m174.74,322.056c6.336,8.172 10.476,18.756 12.564,32.148 2.088,13.428 1.836,28.979-.36,47.627 5.473-12.707 8.424-24.336 8.855-35.424 .324-11.123-2.736-23.291-6.263-30.672-3.6-7.378-8.388-11.987-14.796-13.679z" fill-rule="evenodd" stroke="#000" stroke-miterlimit="10" stroke-width=".036"/>
 <path d="m118.976,319.5c-8.784-.684-15.156,2.27-19.944,8.857-4.824,6.695-8.784,20.016-8.136,30.635 .756,10.477 5.724,24.732 12.564,31.789 6.804,6.912 18.504,10.799 27.72,9.576 9.108-1.441 17.784-7.201 26.568-17.713-11.988,7.633-21.816,11.268-29.916,11.447-8.244,0-13.896-6.336-18.468-11.088-4.644-4.967-6.876-10.691-8.496-17.711-1.692-7.092-4.14-16.344-1.08-24.012 3.024-7.704 9.324-14.868 19.188-21.78z" fill-rule="evenodd" stroke="#000" stroke-miterlimit="10" stroke-width=".036"/>
 <path d="m268.917,323.927c9.936-1.115 17.963,1.045 24.371,6.625 6.445,5.615 14.113,16.848 13.68,26.604-.684,9.721-9.756,24.229-17.352,31.033-7.883,6.551-20.053,10.402-28.439,8.494-8.352-1.979-15.191-8.746-21.061-20.303 6.408,7.416 12.961,11.844 19.943,13.283 6.912,1.297 14.652-.072 21.42-4.787 6.625-4.861 16.164-15.768 18.469-23.293 2.088-7.631.037-15.047-5.184-21.42-5.293-6.408-13.68-11.591-25.847-16.236z" fill-rule="evenodd" stroke="#000" stroke-miterlimit="10" stroke-width=".036"/>
 <path d="m80.672,74.232c-4.392-8.46-6.12-15.624-5.328-21.636 .756-6.12-.036-13.464 10.116-14.4 10.188-.936 26.64,1.944 50.184,8.784-19.584-3.852-33.624-5.364-42.696-4.536-9.072.792-9.252,3.96-11.232,9.36-2.052,5.364-2.448,12.708-1.044,22.428z" fill-rule="evenodd" stroke="#000" stroke-miterlimit="10" stroke-width=".036"/>
 <path d="m88.124,71.532 22.968-3.996c-3.168,3.42-6.588,5.472-10.404,6.156-3.888.648-8.028-.072-12.564-2.16z" fill-rule="evenodd" stroke="#000" stroke-miterlimit="10" stroke-width=".036"/>
 <path d="m283.1,76.212c5.832-7.596 8.82-14.22 9.107-20.304 .252-6.12 2.268-13.356-7.416-16.02-9.863-2.7-26.568-2.844-50.939-.288 19.98-.252 33.984.756 42.84,3.168 8.676,2.304 8.279,5.616 9.359,11.196 1.117,5.616 0,12.852-2.951,22.248z" fill-rule="evenodd" stroke="#000" stroke-miterlimit="10" stroke-width=".036"/>
 <path d="m276.223,72.252-21.887-8.028c2.484,3.888 5.436,6.516 9.143,7.884 3.637,1.26 7.885,1.44 12.744.144z" fill-rule="evenodd" stroke="#000" stroke-miterlimit="10" stroke-width=".036"/>
 <path d="m146.624,168.732c-9.072,4.14-20.196,9.936-18.936,16.56 1.368,6.696 13.5,16.776 26.82,22.86 13.32,6.012 39.131,14.003 52.02,12.599 12.672-1.764 20.881-14.075 23.652-22.067 2.52-7.992.215-18.72-7.885-25.236-8.316-6.552-28.26-12.636-40.967-13.392-12.816-.864-25.632,4.428-34.704,8.676z" fill="#948547" fill-rule="evenodd"/>
 <path d="m186.548,214.416c1.836-4.176 1.548-8.856-.72-14.04-2.448-5.364-13.68-13.788-13.284-17.352 .468-3.528 9.144-2.916 15.876-3.708 6.624-.936 14.364-1.332 23.616-1.476-15.875,1.908-25.38,4.284-28.8,7.416-3.348,3.024 7.812,6.156 8.495,11.052 .506,4.896-1.223,10.8-5.183,18.108z" fill-rule="evenodd" stroke="#000" stroke-miterlimit="10" stroke-width=".036"/>
 <path d="m233.46 187.81c-1.225 7.56-4.463 13.752-9.576 18.864-5.219 5.076-11.34 9.396-21.42 11.448-10.26 1.871-23.04 1.871-39.167 0 8.928 3.672 17.64 5.543 26.964 5.904 9.18 0.252 21.276-1.008 28.081-4.068 6.623-3.133 9.611-8.64 12.168-14.041 2.518-5.399 3.453-11.339 2.95-18.107z" fill-rule="evenodd" stroke="#000" stroke-miterlimit="10" stroke-width=".036"/>
 <path d="m133.38 173.41c2.304-1.872 7.236-4.212 14.796-7.02 7.524-2.952 20.664-9.144 30.276-9.972 9.468-0.828 16.561 2.124 26.568 5.544 10.043 3.456 20.736 8.208 32.904 14.796-19.26-9.288-35.316-14.364-49.141-15.516-13.716-1.188-23.652 6.804-32.868 8.856-9.323 2.052-16.703 3.06-22.535 3.312z" fill-rule="evenodd" stroke="#000" stroke-miterlimit="10" stroke-width=".036"/>
 <path d="m187.27 336.89 21.672 1.043-0.721 3.422-18.035-0.145-2.916-4.32z" fill-rule="evenodd"/>
 <path d="m199.51 303.19c-11.125-6.229-20.052-12.457-27.612-18.828-7.596-6.518-13.896-12.816-17.1-19.297-3.204-6.516-3.564-14.76-1.764-19.295 1.764-4.537 7.848-7.164 12.276-7.885 4.428-0.793 10.08 1.477 14.04 3.061 3.816 1.512 6.696 3.275 8.784 5.688 5.507-6.156 11.197-9.756 17.064-10.943 5.867-1.262 14.688-0.648 18 3.924 3.168 4.535 5.221 12.563 1.297 23.256-4.069 10.655-12.205 23.903-24.985 40.319z" fill="#cd3204" fill-rule="evenodd"/>
 <path d="m184.172,243.576c-2.628-3.816-5.94-6.299-10.08-7.451-4.176-1.297-10.44-1.801-14.904.432-4.608,2.305-11.664,6.588-12.276,13.141-.72,6.516.288,16.848 8.316,25.451 8.064,8.424 20.988,16.705 39.456,24.984-7.956-6.191-14.94-12.385-21.492-18.865-6.66-6.479-14.724-13.752-17.532-19.727-2.916-6.121-1.836-12.672.9-16.201 2.736-3.563 11.088-4.572 15.768-4.824 4.644-.288 8.46.685 11.844,3.06z" fill-rule="evenodd"/>
 <path d="m194.684,242.244c1.188-4.355 3.924-7.092 8.352-8.748 4.465-1.656 12.996-3.744 17.965-.863 4.824,2.771 13.752,7.092 10.943,17.963-2.988,10.98-12.348,26.244-28.477,46.908 8.424-14.184 14.076-25.307 17.102-34.199 2.951-8.928 1.943-14.473.863-18.432-1.188-3.924-3.492-4.932-7.885-5.256-4.535-.434-10.691.394-18.863,2.627z" fill-rule="evenodd"/>
</svg>
