<?xml version="1.0" encoding="UTF-8"?>
<svg viewBox="0 0 90 135" xmlns="http://www.w3.org/2000/svg">
 <g transform="translate(-772.9 -287.86)">
  <g transform="translate(752.04 277.93)">
   <path d="m34.897 9.9336h61.92a14.04 14.04 0 0 1 14.04 14.04v106.92a14.04 14.04 0 0 1 -14.04 14.04h-61.92a14.04 14.04 0 0 1 -14.04 -14.04v-106.92a14.04 14.04 0 0 1 14.04 -14.04"/>
   <path d="m38.857 14.934h54a13 13 0 0 1 13 13v99a13 13 0 0 1 -13 13h-54a13 13 0 0 1 -13 -13v-99a13 13 0 0 1 13 -13" fill="#f2f2f2"/>
  </g>
  <path d="m783.96 374.39c-0.05334-0.79997-0.10667-1.5733-0.16-2.32-1e-5 -0.74664-0.02667-1.52-0.08-2.32v-0.16c3.4667-3.52 7.2-6.6133 11.2-9.28 4.0533-2.72 8.16-5.2 12.32-7.44l0.08 0.08c-0.1067 1.2267-0.1867 2.48-0.24 3.76s-0.13336 2.5334-0.24 3.76l-0.08 0.24c-3.9467 1.8667-7.8134 3.92-11.6 6.16-3.7334 2.1867-7.36 4.72-10.88 7.6l-0.32-0.08m-1.28-28.64c4.2133-0.42661 8.4-0.77328 12.56-1.04 4.2133-0.26661 8.4-0.61328 12.56-1.04l0.08 0.08c-0.05336 1.2267-0.13336 2.4801-0.24 3.76-0.1067 1.2267-0.16003 2.4534-0.16 3.68-4.2134 2.3467-8.32 4.8267-12.32 7.44s-7.7867 5.6267-11.36 9.04l-0.16-0.08c-0.16001-3.7333-0.32001-7.4133-0.48-11.04s-0.34667-7.2266-0.56-10.8l0.08-0.08v0.08m5.68 55.12c-0.42668-4.3733-0.66668-8.8-0.72-13.28s-0.24001-8.9333-0.56-13.36l0.08-0.16c3.04-2.24 6.1866-4.32 9.44-6.24 3.3066-1.92 6.64-3.7866 10-5.6l-0.24 0.08c-0.26669 6.4-0.61336 12.693-1.04 18.88-0.42669 6.1334-1.0134 12.347-1.76 18.64l-0.08 0.16c-2.56 0.21334-5.0934 0.42667-7.6 0.64l-7.44 0.48-0.08-0.24m43.478-31.36c-0.05336 0.21337-0.08003 0.53337-0.08 0.96-3e-5 0.2667-3e-5 0.56003 0 0.88 0.05331 0.2667 0.07997 0.53336 0.08 0.8-3e-5 0.4267-0.02669 0.7467-0.08 0.96v-0.08c-3.36 2.08-6.5334 4.4-9.52 6.96-2.9867 2.5067-5.7867 5.2534-8.4 8.24l-0.16-0.08c-0.26667-0.42665-0.45334-0.85332-0.56-1.28s-0.26667-0.85332-0.48-1.28h-0.08c2.9333-3.2 6-6.1333 9.2-8.8s6.5066-5.12 9.92-7.36l0.16 0.08m18.8-10.32c0.15996 0.53338 0.34662 1.0667 0.56 1.6 0.21329 0.48004 0.37329 0.98671 0.48 1.52l0.08-0.08c-3.4134 1.6-6.7734 3.2534-10.08 4.96-3.3067 1.6534-6.48 3.52-9.52 5.6l-0.16-0.96-0.08-1.68 0.08-0.88c2.9333-1.8666 5.9466-3.68 9.04-5.44s6.2666-3.3333 9.52-4.72l0.08 0.08m-19.52 42.56c-1.8667 0-3.6534-0.34667-5.36-1.04-1.7067-0.64-3.28-1.52-4.72-2.64-1.3867-1.12-2.6667-2.4-3.84-3.84-1.12-1.44-2.0533-2.9333-2.8-4.48l-0.08-0.08c2.56-2.88 5.2533-5.5466 8.08-8 2.88-2.5066 5.9466-4.7733 9.2-6.8h0.32c-0.10669 4.5334-0.24003 9.0134-0.4 13.44-0.10669 4.4267-0.26669 8.88-0.48 13.36l0.08 0.08m1.68-0.16c-0.10669-4.5333-0.21336-9.04-0.32-13.52-0.05336-4.48-0.16003-8.9866-0.32-13.52v-0.16c3.2533-1.9733 6.5066-3.8133 9.76-5.52 3.3066-1.7066 6.6666-3.3866 10.08-5.04l0.08 0.08c0.37329 1.44 0.63995 2.9067 0.8 4.4s0.26662 2.9867 0.32 4.48v0.88c-5e-5 3.0934-0.40005 6.24-1.2 9.44s-2.0267 6.1334-3.68 8.8c-1.6534 2.6133-3.76 4.8267-6.32 6.64-2.5067 1.76-5.4934 2.8-8.96 3.12l-0.08-0.08h-0.16m-22.4-28.64c0-3.0933 0.45333-6.3466 1.36-9.76s2.2667-6.56 4.08-9.44 4.0533-5.2533 6.72-7.12c2.72-1.8666 5.8933-2.7999 9.52-2.8 2.0266 6e-5 3.9733 0.40006 5.84 1.2 1.8666 0.74672 3.5733 1.7867 5.12 3.12s2.9066 2.8534 4.08 4.56c1.2266 1.7067 2.2133 3.4667 2.96 5.28l-0.08 0.08c-3.0934 1.28-6.16 2.72-9.2 4.32-2.9867 1.5467-5.92 3.2-8.8 4.96l-0.24 0.08c-3.5734 2.4-7.0134 4.96-10.32 7.68-3.2534 2.72-6.2933 5.76-9.12 9.12l-0.16-0.08c-0.48001-1.8133-0.85334-3.6533-1.12-5.52-0.26667-1.92-0.4-3.8133-0.4-5.68h-0.24" fill="#800000"/>
  <path d="m809.3 305.5h-5.44v-2.9689c3.9111 2e-5 6.2341-1.357 6.9689-4.0711h2.9511v22.702h-4.48v-15.662m22.106 15.751c-0.92446 0.42667-1.997 0.64-3.2178 0.64s-2.2933-0.2074-3.2178-0.62222c-0.91259-0.41481-1.6593-0.97185-2.24-1.6711-0.56889-0.69926-1.037-1.5644-1.4044-2.5956-0.35556-1.043-0.60445-2.1274-0.74667-3.2533-0.13037-1.1259-0.19555-2.3881-0.19555-3.7867 0-4.3378 0.63999-7.36 1.92-9.0667 0.6874-0.93628 1.5348-1.6533 2.5422-2.1511s2.1215-0.74665 3.3422-0.74667c1.3274 2e-5 2.5244 0.29039 3.5911 0.87111 1.0785 0.58076 1.9437 1.4104 2.5956 2.4889 1.0785 1.7185 1.6178 4.6282 1.6178 8.7289-1e-5 1.363-0.07112 2.5956-0.21333 3.6978-0.13038 1.1022-0.37335 2.1689-0.72889 3.2s-0.82372 1.8963-1.4044 2.5956c-0.5689 0.69926-1.3156 1.2563-2.24 1.6711m0.10666-11.271c-1e-5 -1.7185-0.07704-3.1407-0.23111-4.2667-0.14223-1.1259-0.36742-1.9792-0.67555-2.56-0.30816-0.59258-0.65186-0.99554-1.0311-1.2089-0.36742-0.21332-0.82964-0.31998-1.3867-0.32-0.79408 2e-5 -1.4282 0.24298-1.9022 0.72889-0.46223 0.48594-0.81779 1.3393-1.0667 2.56-0.23704 1.2208-0.35556 2.8978-0.35555 5.0311-1e-5 1.6474 0.0711 3.0163 0.21333 4.1067 0.14222 1.0785 0.36147 1.9082 0.65778 2.4889 0.30814 0.5689 0.65184 0.96593 1.0311 1.1911 0.3911 0.21334 0.86518 0.32001 1.4222 0.32 1.2918 1e-5 2.2044-0.69333 2.7378-2.08 0.16591-0.43851 0.30221-1.2267 0.40889-2.3644 0.1185-1.1496 0.17776-2.3585 0.17777-3.6267" fill="#a00"/>
  <path d="m792.87 305.3c0.6064-3.125 1.8192-6.25 6.064-6.25s7.58 3.125 6.064 9.375-8.4896 9.375-12.128 15.625c-3.6384-6.25-10.612-9.375-12.128-15.625s1.8192-9.375 6.064-9.375 5.4576 3.125 6.064 6.25z" fill="#d40000"/>
  <path d="m833.43 368.11c0.36384-1.875 1.0915-3.75 3.6384-3.75s4.548 1.875 3.6384 5.625-5.0938 5.625-7.2768 9.375c-2.183-3.75-6.3672-5.625-7.2768-9.375s1.0915-5.625 3.6384-5.625 3.2746 1.875 3.6384 3.75z" fill="#d40000"/>
  <path d="m786.43 340.11c0.36384-1.875 1.0915-3.75 3.6384-3.75s4.548 1.875 3.6384 5.625-5.0938 5.625-7.2768 9.375c-2.183-3.75-6.3672-5.625-7.2768-9.375s1.0915-5.625 3.6384-5.625 3.2746 1.875 3.6384 3.75z" fill="#d40000"/>
  <path d="m805.43 342.11c0.36384-1.875 1.0915-3.75 3.6384-3.75s4.548 1.875 3.6384 5.625-5.0938 5.625-7.2768 9.375c-2.183-3.75-6.3672-5.625-7.2768-9.375s1.0915-5.625 3.6384-5.625 3.2746 1.875 3.6384 3.75z" fill="#d40000"/>
  <path d="m789.43 394.11c0.36384-1.875 1.0915-3.75 3.6384-3.75s4.548 1.875 3.6384 5.625-5.0938 5.625-7.2768 9.375c-2.183-3.75-6.3672-5.625-7.2768-9.375s1.0915-5.625 3.6384-5.625 3.2746 1.875 3.6384 3.75z" fill="#d40000"/>
  <path d="m803.43 394.11c0.36384-1.875 1.0915-3.75 3.6384-3.75s4.548 1.875 3.6384 5.625-5.0938 5.625-7.2768 9.375c-2.183-3.75-6.3672-5.625-7.2768-9.375s1.0915-5.625 3.6384-5.625 3.2746 1.875 3.6384 3.75z" fill="#d40000"/>
  <path d="m823.43 392.11c0.36384-1.875 1.0915-3.75 3.6384-3.75s4.548 1.875 3.6384 5.625-5.0938 5.625-7.2768 9.375c-2.183-3.75-6.3672-5.625-7.2768-9.375s1.0915-5.625 3.6384-5.625 3.2746 1.875 3.6384 3.75z" fill="#d40000"/>
  <path d="m846.43 392.11c0.36384-1.875 1.0915-3.75 3.6384-3.75s4.548 1.875 3.6384 5.625-5.0938 5.625-7.2768 9.375c-2.183-3.75-6.3672-5.625-7.2768-9.375s1.0915-5.625 3.6384-5.625 3.2746 1.875 3.6384 3.75z" fill="#d40000"/>
  <path d="m854.43 364.11c0.36384-1.875 1.0915-3.75 3.6384-3.75s4.548 1.875 3.6384 5.625-5.0938 5.625-7.2768 9.375c-2.183-3.75-6.3672-5.625-7.2768-9.375s1.0915-5.625 3.6384-5.625 3.2746 1.875 3.6384 3.75z" fill="#d40000"/>
  <path d="m845.43 341.11c0.36384-1.875 1.0915-3.75 3.6384-3.75s4.548 1.875 3.6384 5.625-5.0938 5.625-7.2768 9.375c-2.183-3.75-6.3672-5.625-7.2768-9.375s1.0915-5.625 3.6384-5.625 3.2746 1.875 3.6384 3.75z" fill="#d40000"/>
  <path d="m821.43 344.11c0.36384-1.875 1.0915-3.75 3.6384-3.75s4.548 1.875 3.6384 5.625-5.0938 5.625-7.2768 9.375c-2.183-3.75-6.3672-5.625-7.2768-9.375s1.0915-5.625 3.6384-5.625 3.2746 1.875 3.6384 3.75z" fill="#d40000"/>
 </g>
</svg>
