<?xml version="1.0" encoding="UTF-8"?>
<svg viewBox="0 0 90 135" xmlns="http://www.w3.org/2000/svg">
 <g transform="translate(-102.36 -146.86)">
  <g transform="translate(81.505 136.93)">
   <path d="m34.897 9.9336h61.92a14.04 14.04 0 0 1 14.04 14.04v106.92a14.04 14.04 0 0 1 -14.04 14.04h-61.92a14.04 14.04 0 0 1 -14.04 -14.04v-106.92a14.04 14.04 0 0 1 14.04 -14.04"/>
   <path d="m38.857 14.934h54a13 13 0 0 1 13 13v99a13 13 0 0 1 -13 13h-54a13 13 0 0 1 -13 -13v-99a13 13 0 0 1 13 -13" fill="#f2f2f2"/>
  </g>
  <path d="m162.32 211.23c0.42663 0.74672 0.79996 1.4934 1.12 2.24s0.6133 1.4934 0.88 2.24l-0.16-0.08c-4.96 2.4534-9.8134 5.1467-14.56 8.08-4.7467 2.88-9.1734 6.2667-13.28 10.16l-0.4 0.08-1.76 0.4c-0.10667-0.58664-0.24001-1.12-0.4-1.6s-0.29334-1.0133-0.4-1.6h-0.08c4.16-4.32 8.6933-8.1333 13.6-11.44s10.027-6.16 15.36-8.56l0.08 0.08m-2.08-3.04c0.10663 0.26672 0.2933 0.56005 0.56 0.88l0.72 0.72 0.16 0.16c-5.4934 2.4-10.667 5.1734-15.52 8.32-4.8 3.0934-9.1467 6.8267-13.04 11.2h-0.08c-0.74667-3.0933-1.4667-6.16-2.16-9.2s-1.4133-6.08-2.16-9.12v-0.08c1.8667-2.7733 4.3467-4.8533 7.44-6.24 3.1466-1.4399 6.3466-2.1599 9.6-2.16h0.24c2.56 0.05339 5.0933 0.50673 7.6 1.36 2.56 0.85339 4.7733 2.2134 6.64 4.08v0.08m-23.92 36.8c-0.05334-0.85331-0.10668-1.68-0.16-2.48s-0.10668-1.6266-0.16-2.48l0.08-0.08c0.63999 0.10669 1.28 0.16002 1.92 0.16s1.28 0.02669 1.92 0.08c0.53332 2e-5 1.12-0.02664 1.76-0.08s1.2533-0.15998 1.84-0.32 1.12-0.39998 1.6-0.72c0.47998-0.37331 0.79998-0.87998 0.96-1.52-0.16002-0.79997-0.50669-1.44-1.04-1.92s-1.1467-0.85331-1.84-1.12c-0.64002-0.31997-1.36-0.5333-2.16-0.64-0.74668-0.15997-1.4667-0.23997-2.16-0.24l-0.24-0.16c4-3.6266 8.1866-6.6933 12.56-9.2s8.9066-4.9066 13.6-7.2l0.08 0.08c0.42663 1.2267 0.71996 2.5067 0.88 3.84 0.15996 1.28 0.23996 2.5867 0.24 3.92-0.05337 2.1334-0.34671 4.2134-0.88 6.24-0.48004 2.0267-1.2267 3.8934-2.24 5.6-1.0134 1.6534-2.2934 3.0934-3.84 4.32-1.4934 1.1734-3.28 2.0267-5.36 2.56 1.0666 0.74669 1.9466 1.68 2.64 2.8 0.6933 1.0667 1.04 2.24 1.04 3.52-0.1067 1.6-0.56003 3.04-1.36 4.32-0.7467 1.28-1.7334 2.3733-2.96 3.28-1.2267 0.85334-2.5867 1.4933-4.08 1.92-1.44 0.48-2.88 0.72-4.32 0.72h-0.16c-3.4667-0.10666-6.6667-1.04-9.6-2.8l-0.08-0.08c0.26666-1.2267 0.47999-2.4267 0.64-3.6s0.37332-2.3733 0.64-3.6l0.08-0.08c0.74666 0.16001 1.4666 0.29335 2.16 0.4 0.74665 0.10668 1.4933 0.16001 2.24 0.16 0.90665 1e-5 1.8933-0.10665 2.96-0.32 1.0666-0.26665 1.76-0.90665 2.08-1.92-0.37335-0.79998-0.93335-1.3866-1.68-1.76-0.69335-0.42665-1.4667-0.74665-2.32-0.96s-1.7334-0.31998-2.64-0.32c-0.90668-0.05332-1.76-0.13332-2.56-0.24l-0.08-0.08" fill="#333"/>
  <path d="m133.54 160.9c-1e-5 -1.2833 0.18148-2.4111 0.54444-3.3833 0.36296-0.98517 0.81666-1.7565 1.3611-2.3139s1.1926-1.0111 1.9444-1.3611c0.76481-0.34998 1.4778-0.57683 2.1389-0.68056 0.6611-0.11664 1.3481-0.17497 2.0611-0.175 2.4111 3e-5 4.3296 0.60929 5.7556 1.8278s2.1389 2.8648 2.1389 4.9389c-2e-5 1.1278-0.25928 2.113-0.77778 2.9556-0.50557 0.82965-1.3352 1.6009-2.4889 2.3139 1.4 0.68705 2.4241 1.5232 3.0722 2.5083 0.66109 0.98519 0.99164 2.2037 0.99166 3.6556-2e-5 2.4111-0.79076 4.3361-2.3722 5.775-1.5685 1.4389-3.675 2.1583-6.3194 2.1583-2.5408-1e-5 -4.563-0.72593-6.0667-2.1778s-2.262-3.4157-2.275-5.8917h4.7639c0.14259 2.5796 1.3676 3.8694 3.675 3.8694 1.0759 0 1.9574-0.35 2.6444-1.05 0.69999-0.71296 1.05-1.6074 1.05-2.6833-1e-5 -0.9074-0.24631-1.6981-0.73889-2.3722-0.47964-0.67406-1.1343-1.1213-1.9639-1.3417-0.67409-0.1685-1.6269-0.25276-2.8583-0.25277v-3.2667h0.42778c2.8907 1e-5 4.3361-1.2509 4.3361-3.7528-1e-5 -1.037-0.27223-1.8342-0.81667-2.3917-0.53149-0.57034-1.2833-0.85553-2.2556-0.85555-1.2963 2e-5 -2.1843 0.3565-2.6639 1.0694-0.46667 0.71299-0.71945 1.8084-0.75833 3.2861h-4.55v-0.40833"/>
  <path d="m121.34 154.8c-2.9571 0-5.3571 2.52-5.3571 5.625 0.02583 1.954 1.034 3.6053 2.0833 5.1758-1.1696-0.88503-2.4694-1.4203-3.869-1.4258-2.9571 0-5.3571 2.52-5.3571 5.625s2.4 5.625 5.3571 5.625c2.3955-0.04009 4.3115-1.7162 6.1942-3.125-0.3369 4.2082-1.0222 6.571-5.0037 7.5h11.905c-3.9815-0.92903-4.6668-3.2918-5.0037-7.5 1.8609 1.5951 3.8126 2.9482 6.1942 3.125 2.9571 0 5.3571-2.52 5.3571-5.625s-2.4-5.625-5.3571-5.625c-1.4356-1.5e-4 -2.6755 0.66045-3.869 1.4258 1.1876-1.5543 1.9693-3.2315 2.0833-5.1758 0-3.105-2.4-5.625-5.3571-5.625z"/>
  <path d="m132.43 201.36c-1.7743 0-3.2143 1.512-3.2143 3.375 0.0155 1.1724 0.62044 2.1632 1.25 3.1055-0.70174-0.53102-1.4816-0.85216-2.3214-0.85547-1.7743 0-3.2143 1.512-3.2143 3.375s1.44 3.375 3.2143 3.375c1.4373-0.02405 2.5869-1.0297 3.7165-1.875-0.20214 2.5249-0.61331 3.9426-3.0022 4.5h7.1429c-2.3889-0.55742-2.8001-1.9751-3.0022-4.5 1.1166 0.95704 2.2875 1.7689 3.7165 1.875 1.7743 0 3.2143-1.512 3.2143-3.375s-1.44-3.375-3.2143-3.375c-0.86134-9e-5 -1.6053 0.39627-2.3214 0.85547 0.71256-0.9326 1.1816-1.9389 1.25-3.1055 0-1.863-1.44-3.375-3.2143-3.375z"/>
  <path d="m165.43 227.36c-1.7743 0-3.2143 1.512-3.2143 3.375 0.0155 1.1724 0.62044 2.1632 1.25 3.1055-0.70174-0.53102-1.4816-0.85216-2.3214-0.85547-1.7743 0-3.2143 1.512-3.2143 3.375s1.44 3.375 3.2143 3.375c1.4373-0.02405 2.5869-1.0297 3.7165-1.875-0.20214 2.5249-0.61331 3.9426-3.0022 4.5h7.1429c-2.3889-0.55742-2.8001-1.9751-3.0022-4.5 1.1166 0.95704 2.2875 1.7689 3.7165 1.875 1.7743 0 3.2143-1.512 3.2143-3.375s-1.44-3.375-3.2143-3.375c-0.86134-9e-5 -1.6053 0.39627-2.3214 0.85547 0.71256-0.9326 1.1816-1.9389 1.25-3.1055 0-1.863-1.44-3.375-3.2143-3.375z"/>
  <path d="m136.43 248.36c-1.7743 0-3.2143 1.512-3.2143 3.375 0.0155 1.1724 0.62044 2.1632 1.25 3.1055-0.70174-0.53102-1.4816-0.85216-2.3214-0.85547-1.7743 0-3.2143 1.512-3.2143 3.375s1.44 3.375 3.2143 3.375c1.4373-0.02405 2.5869-1.0297 3.7165-1.875-0.20214 2.5249-0.61331 3.9426-3.0022 4.5h7.1429c-2.3889-0.55742-2.8001-1.9751-3.0022-4.5 1.1166 0.95704 2.2875 1.7689 3.7165 1.875 1.7743 0 3.2143-1.512 3.2143-3.375s-1.44-3.375-3.2143-3.375c-0.86134-9e-5 -1.6053 0.39627-2.3214 0.85547 0.71256-0.9326 1.1816-1.9389 1.25-3.1055 0-1.863-1.44-3.375-3.2143-3.375z"/>
 </g>
</svg>
